%TF.GenerationSoftware,KiCad,Pcbnew,6.0.11+dfsg-1*%
%TF.CreationDate,2024-04-25T19:10:46-07:00*%
%TF.ProjectId,top_plate,746f705f-706c-4617-9465-2e6b69636164,rev?*%
%TF.SameCoordinates,Original*%
%TF.FileFunction,Copper,L1,Top*%
%TF.FilePolarity,Positive*%
%FSLAX46Y46*%
G04 Gerber Fmt 4.6, Leading zero omitted, Abs format (unit mm)*
G04 Created by KiCad (PCBNEW 6.0.11+dfsg-1) date 2024-04-25 19:10:46*
%MOMM*%
%LPD*%
G01*
G04 APERTURE LIST*
G04 APERTURE END LIST*
%TA.AperFunction,NonConductor*%
G36*
X145154018Y-45238000D02*
G01*
X145168851Y-45240310D01*
X145168855Y-45240310D01*
X145177724Y-45241691D01*
X145198183Y-45239016D01*
X145220007Y-45238072D01*
X145569965Y-45253352D01*
X145580913Y-45254310D01*
X145958498Y-45304019D01*
X145969307Y-45305926D01*
X146341114Y-45388353D01*
X146351731Y-45391198D01*
X146714939Y-45505718D01*
X146725254Y-45509471D01*
X147077123Y-45655220D01*
X147087067Y-45659858D01*
X147424867Y-45835705D01*
X147434387Y-45841201D01*
X147755574Y-46045820D01*
X147764578Y-46052124D01*
X148066716Y-46283962D01*
X148075137Y-46291028D01*
X148355914Y-46548314D01*
X148363686Y-46556086D01*
X148620972Y-46836863D01*
X148628038Y-46845284D01*
X148859876Y-47147422D01*
X148866180Y-47156426D01*
X149070799Y-47477613D01*
X149076294Y-47487132D01*
X149216997Y-47757418D01*
X149252138Y-47824924D01*
X149256780Y-47834877D01*
X149402526Y-48186739D01*
X149406282Y-48197061D01*
X149519616Y-48556507D01*
X149520802Y-48560268D01*
X149523647Y-48570886D01*
X149606073Y-48942685D01*
X149607981Y-48953502D01*
X149644961Y-49234399D01*
X149657690Y-49331086D01*
X149658648Y-49342036D01*
X149673603Y-49684552D01*
X149672223Y-49709429D01*
X149670309Y-49721724D01*
X149671473Y-49730626D01*
X149671473Y-49730628D01*
X149674436Y-49753283D01*
X149675500Y-49769621D01*
X149675500Y-159678633D01*
X149674000Y-159698018D01*
X149671690Y-159712851D01*
X149671690Y-159712855D01*
X149670309Y-159721724D01*
X149672984Y-159742183D01*
X149673928Y-159764007D01*
X149664412Y-159981958D01*
X149658648Y-160113964D01*
X149657690Y-160124913D01*
X149618313Y-160424019D01*
X149607982Y-160502490D01*
X149606073Y-160513315D01*
X149523647Y-160885114D01*
X149520802Y-160895731D01*
X149427321Y-161192216D01*
X149406285Y-161258932D01*
X149402529Y-161269254D01*
X149299439Y-161518136D01*
X149256784Y-161621114D01*
X149252142Y-161631067D01*
X149103305Y-161916982D01*
X149076295Y-161968867D01*
X149070799Y-161978387D01*
X148866180Y-162299574D01*
X148859876Y-162308578D01*
X148628038Y-162610716D01*
X148620972Y-162619137D01*
X148363686Y-162899914D01*
X148355914Y-162907686D01*
X148075137Y-163164972D01*
X148066716Y-163172038D01*
X147764578Y-163403876D01*
X147755574Y-163410180D01*
X147434387Y-163614799D01*
X147424868Y-163620294D01*
X147087067Y-163796142D01*
X147077123Y-163800780D01*
X146725254Y-163946529D01*
X146714939Y-163950282D01*
X146351732Y-164064802D01*
X146341115Y-164067647D01*
X145969307Y-164150074D01*
X145958498Y-164151981D01*
X145580914Y-164201690D01*
X145569965Y-164202648D01*
X145227446Y-164217603D01*
X145202571Y-164216223D01*
X145190276Y-164214309D01*
X145181374Y-164215473D01*
X145181372Y-164215473D01*
X145166323Y-164217441D01*
X145158714Y-164218436D01*
X145142379Y-164219500D01*
X35233367Y-164219500D01*
X35213982Y-164218000D01*
X35199149Y-164215690D01*
X35199145Y-164215690D01*
X35190276Y-164214309D01*
X35169817Y-164216984D01*
X35147993Y-164217928D01*
X34798035Y-164202648D01*
X34787086Y-164201690D01*
X34409502Y-164151981D01*
X34398693Y-164150074D01*
X34026885Y-164067647D01*
X34016268Y-164064802D01*
X33653061Y-163950282D01*
X33642746Y-163946529D01*
X33290877Y-163800780D01*
X33280933Y-163796142D01*
X32943132Y-163620294D01*
X32933613Y-163614799D01*
X32612426Y-163410180D01*
X32603422Y-163403876D01*
X32301284Y-163172038D01*
X32292863Y-163164972D01*
X32012086Y-162907686D01*
X32004314Y-162899914D01*
X31747028Y-162619137D01*
X31739962Y-162610716D01*
X31508124Y-162308578D01*
X31501820Y-162299574D01*
X31297201Y-161978387D01*
X31291705Y-161968867D01*
X31264695Y-161916982D01*
X31115858Y-161631067D01*
X31111216Y-161621114D01*
X31068562Y-161518136D01*
X30965471Y-161269254D01*
X30961715Y-161258932D01*
X30940680Y-161192216D01*
X30847198Y-160895731D01*
X30844353Y-160885114D01*
X30761927Y-160513315D01*
X30760018Y-160502490D01*
X30749688Y-160424019D01*
X30710310Y-160124913D01*
X30709352Y-160113964D01*
X30703588Y-159981958D01*
X30703415Y-159978000D01*
X32420540Y-159978000D01*
X32440359Y-160293020D01*
X32499505Y-160603072D01*
X32500732Y-160606848D01*
X32592892Y-160890486D01*
X32597044Y-160903266D01*
X32598731Y-160906852D01*
X32598733Y-160906856D01*
X32729750Y-161185283D01*
X32729754Y-161185290D01*
X32731438Y-161188869D01*
X32900568Y-161455375D01*
X33101767Y-161698582D01*
X33331860Y-161914654D01*
X33587221Y-162100184D01*
X33863821Y-162252247D01*
X33867490Y-162253700D01*
X33867495Y-162253702D01*
X34115763Y-162351998D01*
X34157298Y-162368443D01*
X34463025Y-162446940D01*
X34776179Y-162486500D01*
X35091821Y-162486500D01*
X35404975Y-162446940D01*
X35710702Y-162368443D01*
X35752237Y-162351998D01*
X36000505Y-162253702D01*
X36000510Y-162253700D01*
X36004179Y-162252247D01*
X36280779Y-162100184D01*
X36536140Y-161914654D01*
X36766233Y-161698582D01*
X36967432Y-161455375D01*
X37136562Y-161188869D01*
X37138246Y-161185290D01*
X37138250Y-161185283D01*
X37269267Y-160906856D01*
X37269269Y-160906852D01*
X37270956Y-160903266D01*
X37275109Y-160890486D01*
X37367268Y-160606848D01*
X37368495Y-160603072D01*
X37427641Y-160293020D01*
X37447460Y-159978000D01*
X142920540Y-159978000D01*
X142940359Y-160293020D01*
X142999505Y-160603072D01*
X143000732Y-160606848D01*
X143092892Y-160890486D01*
X143097044Y-160903266D01*
X143098731Y-160906852D01*
X143098733Y-160906856D01*
X143229750Y-161185283D01*
X143229754Y-161185290D01*
X143231438Y-161188869D01*
X143400568Y-161455375D01*
X143601767Y-161698582D01*
X143831860Y-161914654D01*
X144087221Y-162100184D01*
X144363821Y-162252247D01*
X144367490Y-162253700D01*
X144367495Y-162253702D01*
X144615763Y-162351998D01*
X144657298Y-162368443D01*
X144963025Y-162446940D01*
X145276179Y-162486500D01*
X145591821Y-162486500D01*
X145904975Y-162446940D01*
X146210702Y-162368443D01*
X146252237Y-162351998D01*
X146500505Y-162253702D01*
X146500510Y-162253700D01*
X146504179Y-162252247D01*
X146780779Y-162100184D01*
X147036140Y-161914654D01*
X147266233Y-161698582D01*
X147467432Y-161455375D01*
X147636562Y-161188869D01*
X147638246Y-161185290D01*
X147638250Y-161185283D01*
X147769267Y-160906856D01*
X147769269Y-160906852D01*
X147770956Y-160903266D01*
X147775109Y-160890486D01*
X147867268Y-160606848D01*
X147868495Y-160603072D01*
X147927641Y-160293020D01*
X147947460Y-159978000D01*
X147927641Y-159662980D01*
X147868495Y-159352928D01*
X147770956Y-159052734D01*
X147764667Y-159039369D01*
X147638250Y-158770717D01*
X147638246Y-158770710D01*
X147636562Y-158767131D01*
X147467432Y-158500625D01*
X147266233Y-158257418D01*
X147036140Y-158041346D01*
X146780779Y-157855816D01*
X146538000Y-157722346D01*
X146507648Y-157705660D01*
X146507647Y-157705659D01*
X146504179Y-157703753D01*
X146500510Y-157702300D01*
X146500505Y-157702298D01*
X146214372Y-157589010D01*
X146214371Y-157589010D01*
X146210702Y-157587557D01*
X145904975Y-157509060D01*
X145591821Y-157469500D01*
X145276179Y-157469500D01*
X144963025Y-157509060D01*
X144657298Y-157587557D01*
X144653629Y-157589010D01*
X144653628Y-157589010D01*
X144367495Y-157702298D01*
X144367490Y-157702300D01*
X144363821Y-157703753D01*
X144360353Y-157705659D01*
X144360352Y-157705660D01*
X144330001Y-157722346D01*
X144087221Y-157855816D01*
X143831860Y-158041346D01*
X143601767Y-158257418D01*
X143400568Y-158500625D01*
X143231438Y-158767131D01*
X143229754Y-158770710D01*
X143229750Y-158770717D01*
X143103333Y-159039369D01*
X143097044Y-159052734D01*
X142999505Y-159352928D01*
X142940359Y-159662980D01*
X142922833Y-159941559D01*
X142920540Y-159978000D01*
X37447460Y-159978000D01*
X37427641Y-159662980D01*
X37368495Y-159352928D01*
X37270956Y-159052734D01*
X37264667Y-159039369D01*
X37138250Y-158770717D01*
X37138246Y-158770710D01*
X37136562Y-158767131D01*
X36967432Y-158500625D01*
X36766233Y-158257418D01*
X36536140Y-158041346D01*
X36280779Y-157855816D01*
X36038000Y-157722346D01*
X36007648Y-157705660D01*
X36007647Y-157705659D01*
X36004179Y-157703753D01*
X36000510Y-157702300D01*
X36000505Y-157702298D01*
X35714372Y-157589010D01*
X35714371Y-157589010D01*
X35710702Y-157587557D01*
X35404975Y-157509060D01*
X35091821Y-157469500D01*
X34776179Y-157469500D01*
X34463025Y-157509060D01*
X34157298Y-157587557D01*
X34153629Y-157589010D01*
X34153628Y-157589010D01*
X33867495Y-157702298D01*
X33867490Y-157702300D01*
X33863821Y-157703753D01*
X33860353Y-157705659D01*
X33860352Y-157705660D01*
X33830001Y-157722346D01*
X33587221Y-157855816D01*
X33331860Y-158041346D01*
X33101767Y-158257418D01*
X32900568Y-158500625D01*
X32731438Y-158767131D01*
X32729754Y-158770710D01*
X32729750Y-158770717D01*
X32603333Y-159039369D01*
X32597044Y-159052734D01*
X32499505Y-159352928D01*
X32440359Y-159662980D01*
X32422833Y-159941559D01*
X32420540Y-159978000D01*
X30703415Y-159978000D01*
X30694561Y-159775206D01*
X30696188Y-159748805D01*
X30696769Y-159745352D01*
X30696770Y-159745345D01*
X30697576Y-159740552D01*
X30697729Y-159728000D01*
X30693773Y-159700376D01*
X30692500Y-159682514D01*
X30692500Y-156272721D01*
X39886024Y-156272721D01*
X39888491Y-156281352D01*
X39894150Y-156301153D01*
X39897728Y-156317915D01*
X39901920Y-156347187D01*
X39905634Y-156355355D01*
X39905634Y-156355356D01*
X39912548Y-156370562D01*
X39918996Y-156388086D01*
X39926051Y-156412771D01*
X39930843Y-156420365D01*
X39930844Y-156420368D01*
X39941830Y-156437780D01*
X39949969Y-156452863D01*
X39962208Y-156479782D01*
X39968069Y-156486584D01*
X39978970Y-156499235D01*
X39990073Y-156514239D01*
X40003776Y-156535958D01*
X40010501Y-156541897D01*
X40010504Y-156541901D01*
X40025938Y-156555532D01*
X40037982Y-156567724D01*
X40051427Y-156583327D01*
X40051430Y-156583329D01*
X40057287Y-156590127D01*
X40064816Y-156595007D01*
X40064817Y-156595008D01*
X40078835Y-156604094D01*
X40093709Y-156615385D01*
X40106217Y-156626431D01*
X40112951Y-156632378D01*
X40139711Y-156644942D01*
X40154691Y-156653263D01*
X40171983Y-156664471D01*
X40171988Y-156664473D01*
X40179515Y-156669352D01*
X40188108Y-156671922D01*
X40188113Y-156671924D01*
X40204120Y-156676711D01*
X40221564Y-156683372D01*
X40236676Y-156690467D01*
X40236678Y-156690468D01*
X40244800Y-156694281D01*
X40253667Y-156695662D01*
X40253668Y-156695662D01*
X40256353Y-156696080D01*
X40274017Y-156698830D01*
X40290732Y-156702613D01*
X40310466Y-156708515D01*
X40310472Y-156708516D01*
X40319066Y-156711086D01*
X40328037Y-156711141D01*
X40328038Y-156711141D01*
X40338097Y-156711202D01*
X40353506Y-156711296D01*
X40354289Y-156711329D01*
X40355386Y-156711500D01*
X40386377Y-156711500D01*
X40387147Y-156711502D01*
X40460785Y-156711952D01*
X40460786Y-156711952D01*
X40464721Y-156711976D01*
X40466065Y-156711592D01*
X40467410Y-156711500D01*
X90386377Y-156711500D01*
X90387148Y-156711502D01*
X90464721Y-156711976D01*
X90493152Y-156703850D01*
X90509915Y-156700272D01*
X90510753Y-156700152D01*
X90539187Y-156696080D01*
X90562564Y-156685451D01*
X90580087Y-156679004D01*
X90604771Y-156671949D01*
X90612365Y-156667157D01*
X90612368Y-156667156D01*
X90629780Y-156656170D01*
X90644865Y-156648030D01*
X90671782Y-156635792D01*
X90691235Y-156619030D01*
X90706239Y-156607927D01*
X90727958Y-156594224D01*
X90733897Y-156587499D01*
X90733901Y-156587496D01*
X90747532Y-156572062D01*
X90759724Y-156560018D01*
X90775025Y-156546833D01*
X125997666Y-156546833D01*
X126014466Y-156838196D01*
X126015291Y-156842401D01*
X126015292Y-156842409D01*
X126051360Y-157026248D01*
X126070653Y-157124584D01*
X126165187Y-157400696D01*
X126167112Y-157404523D01*
X126167113Y-157404526D01*
X126284419Y-157637764D01*
X126296319Y-157661424D01*
X126461623Y-157901943D01*
X126464510Y-157905116D01*
X126464511Y-157905117D01*
X126511881Y-157957176D01*
X126658040Y-158117802D01*
X126661329Y-158120552D01*
X126878643Y-158302255D01*
X126878648Y-158302259D01*
X126881935Y-158305007D01*
X127005550Y-158382550D01*
X127125525Y-158457811D01*
X127125529Y-158457813D01*
X127129165Y-158460094D01*
X127202307Y-158493119D01*
X127391243Y-158578428D01*
X127391247Y-158578430D01*
X127395155Y-158580194D01*
X127399275Y-158581414D01*
X127399274Y-158581414D01*
X127670871Y-158661865D01*
X127670875Y-158661866D01*
X127674984Y-158663083D01*
X127679218Y-158663731D01*
X127679223Y-158663732D01*
X127932504Y-158702489D01*
X127963473Y-158707228D01*
X128112064Y-158709562D01*
X128250993Y-158711745D01*
X128250999Y-158711745D01*
X128255284Y-158711812D01*
X128545018Y-158676750D01*
X128827312Y-158602692D01*
X128831272Y-158601052D01*
X128831277Y-158601050D01*
X128976485Y-158540903D01*
X129096943Y-158491007D01*
X129146823Y-158461860D01*
X129345215Y-158345929D01*
X129345217Y-158345927D01*
X129348923Y-158343762D01*
X129578588Y-158163682D01*
X129626124Y-158114629D01*
X129778705Y-157957176D01*
X129781688Y-157954098D01*
X129784221Y-157950650D01*
X129784225Y-157950645D01*
X129951927Y-157722346D01*
X129954465Y-157718891D01*
X129963474Y-157702298D01*
X130091672Y-157466186D01*
X130091673Y-157466184D01*
X130093722Y-157462410D01*
X130196883Y-157189404D01*
X130262038Y-156904923D01*
X130281625Y-156685452D01*
X130287761Y-156616698D01*
X130287761Y-156616694D01*
X130287981Y-156614231D01*
X130288452Y-156569300D01*
X130284020Y-156504291D01*
X130268894Y-156282406D01*
X130268893Y-156282400D01*
X130268602Y-156278129D01*
X130265624Y-156263746D01*
X130210288Y-155996542D01*
X130209419Y-155992345D01*
X130111998Y-155717238D01*
X129978143Y-155457898D01*
X129972110Y-155449313D01*
X129812792Y-155222628D01*
X129810329Y-155219123D01*
X129611663Y-155005333D01*
X129608347Y-155002619D01*
X129608344Y-155002616D01*
X129389138Y-154823198D01*
X129385820Y-154820482D01*
X129136979Y-154667993D01*
X129133043Y-154666265D01*
X128873674Y-154552409D01*
X128873670Y-154552408D01*
X128869746Y-154550685D01*
X128589065Y-154470731D01*
X128373246Y-154440016D01*
X128304381Y-154430215D01*
X128304379Y-154430215D01*
X128300129Y-154429610D01*
X128146252Y-154428804D01*
X128012572Y-154428104D01*
X128012566Y-154428104D01*
X128008286Y-154428082D01*
X128004042Y-154428641D01*
X128004038Y-154428641D01*
X127877107Y-154445352D01*
X127718936Y-154466175D01*
X127437432Y-154543186D01*
X127168985Y-154657688D01*
X127017873Y-154748127D01*
X126922243Y-154805360D01*
X126922239Y-154805363D01*
X126918561Y-154807564D01*
X126690795Y-154990039D01*
X126489901Y-155201737D01*
X126319596Y-155438742D01*
X126183032Y-155696666D01*
X126082736Y-155970738D01*
X126020564Y-156255886D01*
X125998212Y-156539892D01*
X125997666Y-156546833D01*
X90775025Y-156546833D01*
X90775327Y-156546573D01*
X90775329Y-156546570D01*
X90782127Y-156540713D01*
X90796094Y-156519165D01*
X90807385Y-156504291D01*
X90818431Y-156491783D01*
X90818432Y-156491782D01*
X90824378Y-156485049D01*
X90836943Y-156458287D01*
X90845263Y-156443309D01*
X90856471Y-156426017D01*
X90856473Y-156426012D01*
X90861352Y-156418485D01*
X90863922Y-156409892D01*
X90863924Y-156409887D01*
X90868711Y-156393880D01*
X90875372Y-156376436D01*
X90882467Y-156361324D01*
X90882468Y-156361322D01*
X90886281Y-156353200D01*
X90890830Y-156323983D01*
X90894613Y-156307268D01*
X90900515Y-156287534D01*
X90900516Y-156287528D01*
X90903086Y-156278934D01*
X90903296Y-156244494D01*
X90903329Y-156243711D01*
X90903500Y-156242614D01*
X90903500Y-156211623D01*
X90903502Y-156210853D01*
X90903952Y-156137215D01*
X90903952Y-156137214D01*
X90903976Y-156133279D01*
X90903592Y-156131935D01*
X90903500Y-156130590D01*
X90903500Y-147048100D01*
X96895445Y-147048100D01*
X96915651Y-147433659D01*
X96916164Y-147436899D01*
X96916165Y-147436907D01*
X96943970Y-147612457D01*
X96976049Y-147814994D01*
X97075976Y-148187926D01*
X97214337Y-148548370D01*
X97215835Y-148551310D01*
X97378670Y-148870890D01*
X97389618Y-148892377D01*
X97391414Y-148895143D01*
X97391416Y-148895146D01*
X97472709Y-149020326D01*
X97599896Y-149216178D01*
X97842869Y-149516225D01*
X98115875Y-149789231D01*
X98415922Y-150032204D01*
X98739722Y-150242482D01*
X98742656Y-150243977D01*
X98742663Y-150243981D01*
X99080790Y-150416265D01*
X99083730Y-150417763D01*
X99444174Y-150556124D01*
X99817106Y-150656051D01*
X100019643Y-150688130D01*
X100195193Y-150715935D01*
X100195201Y-150715936D01*
X100198441Y-150716449D01*
X100584000Y-150736655D01*
X100969559Y-150716449D01*
X100972799Y-150715936D01*
X100972807Y-150715935D01*
X101148357Y-150688130D01*
X101350894Y-150656051D01*
X101723826Y-150556124D01*
X102084270Y-150417763D01*
X102087210Y-150416265D01*
X102425337Y-150243981D01*
X102425344Y-150243977D01*
X102428278Y-150242482D01*
X102752078Y-150032204D01*
X103052125Y-149789231D01*
X103325131Y-149516225D01*
X103568104Y-149216178D01*
X103695291Y-149020326D01*
X103776584Y-148895146D01*
X103776586Y-148895143D01*
X103778382Y-148892377D01*
X103789331Y-148870890D01*
X103952165Y-148551310D01*
X103953663Y-148548370D01*
X104092024Y-148187926D01*
X104191951Y-147814994D01*
X104224030Y-147612457D01*
X104251835Y-147436907D01*
X104251836Y-147436899D01*
X104252349Y-147433659D01*
X104272555Y-147048100D01*
X115437445Y-147048100D01*
X115457651Y-147433659D01*
X115458164Y-147436899D01*
X115458165Y-147436907D01*
X115485970Y-147612457D01*
X115518049Y-147814994D01*
X115617976Y-148187926D01*
X115756337Y-148548370D01*
X115757835Y-148551310D01*
X115920670Y-148870890D01*
X115931618Y-148892377D01*
X115933414Y-148895143D01*
X115933416Y-148895146D01*
X116014709Y-149020326D01*
X116141896Y-149216178D01*
X116384869Y-149516225D01*
X116657875Y-149789231D01*
X116957922Y-150032204D01*
X117281722Y-150242482D01*
X117284656Y-150243977D01*
X117284663Y-150243981D01*
X117622790Y-150416265D01*
X117625730Y-150417763D01*
X117986174Y-150556124D01*
X118359106Y-150656051D01*
X118561643Y-150688130D01*
X118737193Y-150715935D01*
X118737201Y-150715936D01*
X118740441Y-150716449D01*
X119126000Y-150736655D01*
X119511559Y-150716449D01*
X119514799Y-150715936D01*
X119514807Y-150715935D01*
X119690357Y-150688130D01*
X119892894Y-150656051D01*
X120265826Y-150556124D01*
X120626270Y-150417763D01*
X120629210Y-150416265D01*
X120967337Y-150243981D01*
X120967344Y-150243977D01*
X120970278Y-150242482D01*
X121294078Y-150032204D01*
X121594125Y-149789231D01*
X121867131Y-149516225D01*
X122110104Y-149216178D01*
X122237291Y-149020326D01*
X122318584Y-148895146D01*
X122318586Y-148895143D01*
X122320382Y-148892377D01*
X122331331Y-148870890D01*
X122494165Y-148551310D01*
X122495663Y-148548370D01*
X122634024Y-148187926D01*
X122733951Y-147814994D01*
X122766030Y-147612457D01*
X122793835Y-147436907D01*
X122793836Y-147436899D01*
X122794349Y-147433659D01*
X122813617Y-147066000D01*
X133979445Y-147066000D01*
X133999651Y-147451559D01*
X134060049Y-147832894D01*
X134159976Y-148205826D01*
X134298337Y-148566270D01*
X134299835Y-148569210D01*
X134462999Y-148889436D01*
X134473618Y-148910277D01*
X134683896Y-149234078D01*
X134926869Y-149534125D01*
X135199875Y-149807131D01*
X135499922Y-150050104D01*
X135502697Y-150051906D01*
X135798467Y-150243981D01*
X135823722Y-150260382D01*
X135826656Y-150261877D01*
X135826663Y-150261881D01*
X136129659Y-150416265D01*
X136167730Y-150435663D01*
X136528174Y-150574024D01*
X136901106Y-150673951D01*
X137103643Y-150706030D01*
X137279193Y-150733835D01*
X137279201Y-150733836D01*
X137282441Y-150734349D01*
X137668000Y-150754555D01*
X138053559Y-150734349D01*
X138056799Y-150733836D01*
X138056807Y-150733835D01*
X138232357Y-150706030D01*
X138434894Y-150673951D01*
X138807826Y-150574024D01*
X139168270Y-150435663D01*
X139206341Y-150416265D01*
X139509337Y-150261881D01*
X139509344Y-150261877D01*
X139512278Y-150260382D01*
X139537534Y-150243981D01*
X139833303Y-150051906D01*
X139836078Y-150050104D01*
X140136125Y-149807131D01*
X140409131Y-149534125D01*
X140652104Y-149234078D01*
X140862382Y-148910277D01*
X140873002Y-148889436D01*
X141036165Y-148569210D01*
X141037663Y-148566270D01*
X141176024Y-148205826D01*
X141275951Y-147832894D01*
X141336349Y-147451559D01*
X141356555Y-147066000D01*
X141336349Y-146680441D01*
X141333000Y-146659293D01*
X141276467Y-146302367D01*
X141275951Y-146299106D01*
X141176024Y-145926174D01*
X141037663Y-145565730D01*
X141011737Y-145514848D01*
X140863881Y-145224664D01*
X140863877Y-145224657D01*
X140862382Y-145221723D01*
X140848960Y-145201054D01*
X140653906Y-144900697D01*
X140652104Y-144897922D01*
X140409131Y-144597875D01*
X140136125Y-144324869D01*
X139836078Y-144081896D01*
X139512278Y-143871618D01*
X139509344Y-143870123D01*
X139509337Y-143870119D01*
X139171210Y-143697835D01*
X139168270Y-143696337D01*
X138807826Y-143557976D01*
X138434894Y-143458049D01*
X138232357Y-143425970D01*
X138056807Y-143398165D01*
X138056799Y-143398164D01*
X138053559Y-143397651D01*
X137668000Y-143377445D01*
X137282441Y-143397651D01*
X137279201Y-143398164D01*
X137279193Y-143398165D01*
X137103643Y-143425970D01*
X136901106Y-143458049D01*
X136528174Y-143557976D01*
X136167730Y-143696337D01*
X136164790Y-143697835D01*
X135826664Y-143870119D01*
X135826657Y-143870123D01*
X135823723Y-143871618D01*
X135499922Y-144081896D01*
X135199875Y-144324869D01*
X134926869Y-144597875D01*
X134683896Y-144897922D01*
X134682094Y-144900697D01*
X134487041Y-145201054D01*
X134473618Y-145221723D01*
X134472123Y-145224657D01*
X134472119Y-145224664D01*
X134324263Y-145514848D01*
X134298337Y-145565730D01*
X134159976Y-145926174D01*
X134060049Y-146299106D01*
X134059533Y-146302367D01*
X134003001Y-146659293D01*
X133999651Y-146680441D01*
X133980908Y-147038077D01*
X133979445Y-147066000D01*
X122813617Y-147066000D01*
X122814555Y-147048100D01*
X122794349Y-146662541D01*
X122733951Y-146281206D01*
X122634024Y-145908274D01*
X122495663Y-145547830D01*
X122370718Y-145302612D01*
X122321881Y-145206764D01*
X122321877Y-145206757D01*
X122320382Y-145203823D01*
X122236782Y-145075089D01*
X122111906Y-144882797D01*
X122110104Y-144880022D01*
X121867131Y-144579975D01*
X121594125Y-144306969D01*
X121294078Y-144063996D01*
X121184884Y-143993085D01*
X120973047Y-143855516D01*
X120973044Y-143855514D01*
X120970278Y-143853718D01*
X120967344Y-143852223D01*
X120967337Y-143852219D01*
X120629210Y-143679935D01*
X120626270Y-143678437D01*
X120265826Y-143540076D01*
X119892894Y-143440149D01*
X119627820Y-143398165D01*
X119514807Y-143380265D01*
X119514799Y-143380264D01*
X119511559Y-143379751D01*
X119126000Y-143359545D01*
X118740441Y-143379751D01*
X118737201Y-143380264D01*
X118737193Y-143380265D01*
X118624180Y-143398165D01*
X118359106Y-143440149D01*
X117986174Y-143540076D01*
X117625730Y-143678437D01*
X117622790Y-143679935D01*
X117284664Y-143852219D01*
X117284657Y-143852223D01*
X117281723Y-143853718D01*
X117278957Y-143855514D01*
X117278954Y-143855516D01*
X117065166Y-143994351D01*
X116957922Y-144063996D01*
X116657875Y-144306969D01*
X116384869Y-144579975D01*
X116141896Y-144880022D01*
X116140094Y-144882797D01*
X116015219Y-145075089D01*
X115931618Y-145203823D01*
X115930123Y-145206757D01*
X115930119Y-145206764D01*
X115881282Y-145302612D01*
X115756337Y-145547830D01*
X115617976Y-145908274D01*
X115518049Y-146281206D01*
X115457651Y-146662541D01*
X115438908Y-147020177D01*
X115437445Y-147048100D01*
X104272555Y-147048100D01*
X104252349Y-146662541D01*
X104191951Y-146281206D01*
X104092024Y-145908274D01*
X103953663Y-145547830D01*
X103828718Y-145302612D01*
X103779881Y-145206764D01*
X103779877Y-145206757D01*
X103778382Y-145203823D01*
X103694782Y-145075089D01*
X103569906Y-144882797D01*
X103568104Y-144880022D01*
X103325131Y-144579975D01*
X103052125Y-144306969D01*
X102752078Y-144063996D01*
X102642884Y-143993085D01*
X102431047Y-143855516D01*
X102431044Y-143855514D01*
X102428278Y-143853718D01*
X102425344Y-143852223D01*
X102425337Y-143852219D01*
X102087210Y-143679935D01*
X102084270Y-143678437D01*
X101723826Y-143540076D01*
X101350894Y-143440149D01*
X101085820Y-143398165D01*
X100972807Y-143380265D01*
X100972799Y-143380264D01*
X100969559Y-143379751D01*
X100584000Y-143359545D01*
X100198441Y-143379751D01*
X100195201Y-143380264D01*
X100195193Y-143380265D01*
X100082180Y-143398165D01*
X99817106Y-143440149D01*
X99444174Y-143540076D01*
X99083730Y-143678437D01*
X99080790Y-143679935D01*
X98742664Y-143852219D01*
X98742657Y-143852223D01*
X98739723Y-143853718D01*
X98736957Y-143855514D01*
X98736954Y-143855516D01*
X98523166Y-143994351D01*
X98415922Y-144063996D01*
X98115875Y-144306969D01*
X97842869Y-144579975D01*
X97599896Y-144880022D01*
X97598094Y-144882797D01*
X97473219Y-145075089D01*
X97389618Y-145203823D01*
X97388123Y-145206757D01*
X97388119Y-145206764D01*
X97339282Y-145302612D01*
X97214337Y-145547830D01*
X97075976Y-145908274D01*
X96976049Y-146281206D01*
X96915651Y-146662541D01*
X96896908Y-147020177D01*
X96895445Y-147048100D01*
X90903500Y-147048100D01*
X90903500Y-137211623D01*
X90903502Y-137210853D01*
X90903800Y-137162102D01*
X90903976Y-137133279D01*
X90895850Y-137104847D01*
X90892272Y-137088085D01*
X90889352Y-137067698D01*
X90888080Y-137058813D01*
X90877451Y-137035436D01*
X90871004Y-137017913D01*
X90866416Y-137001862D01*
X90863949Y-136993229D01*
X90859156Y-136985632D01*
X90848170Y-136968220D01*
X90840030Y-136953135D01*
X90837564Y-136947711D01*
X90827792Y-136926218D01*
X90811030Y-136906765D01*
X90799927Y-136891761D01*
X90786224Y-136870042D01*
X90779499Y-136864103D01*
X90779496Y-136864099D01*
X90764062Y-136850468D01*
X90752018Y-136838276D01*
X90738573Y-136822673D01*
X90738570Y-136822671D01*
X90732713Y-136815873D01*
X90719009Y-136806990D01*
X90711165Y-136801906D01*
X90696291Y-136790615D01*
X90683783Y-136779569D01*
X90683782Y-136779568D01*
X90677049Y-136773622D01*
X90650287Y-136761057D01*
X90635309Y-136752737D01*
X90618017Y-136741529D01*
X90618012Y-136741527D01*
X90610485Y-136736648D01*
X90601892Y-136734078D01*
X90601887Y-136734076D01*
X90585880Y-136729289D01*
X90568436Y-136722628D01*
X90553324Y-136715533D01*
X90553322Y-136715532D01*
X90545200Y-136711719D01*
X90536333Y-136710338D01*
X90536332Y-136710338D01*
X90525478Y-136708648D01*
X90515983Y-136707170D01*
X90499268Y-136703387D01*
X90479534Y-136697485D01*
X90479528Y-136697484D01*
X90470934Y-136694914D01*
X90461963Y-136694859D01*
X90461962Y-136694859D01*
X90451903Y-136694798D01*
X90436494Y-136694704D01*
X90435711Y-136694671D01*
X90434614Y-136694500D01*
X90403623Y-136694500D01*
X90402853Y-136694498D01*
X90329215Y-136694048D01*
X90329214Y-136694048D01*
X90325279Y-136694024D01*
X90323935Y-136694408D01*
X90322590Y-136694500D01*
X40403623Y-136694500D01*
X40402853Y-136694498D01*
X40402037Y-136694493D01*
X40325279Y-136694024D01*
X40302918Y-136700415D01*
X40296847Y-136702150D01*
X40280085Y-136705728D01*
X40250813Y-136709920D01*
X40242645Y-136713634D01*
X40242644Y-136713634D01*
X40227438Y-136720548D01*
X40209914Y-136726996D01*
X40185229Y-136734051D01*
X40177635Y-136738843D01*
X40177632Y-136738844D01*
X40160220Y-136749830D01*
X40145137Y-136757969D01*
X40118218Y-136770208D01*
X40111416Y-136776069D01*
X40098765Y-136786970D01*
X40083761Y-136798073D01*
X40062042Y-136811776D01*
X40056103Y-136818501D01*
X40056099Y-136818504D01*
X40042468Y-136833938D01*
X40030276Y-136845982D01*
X40014673Y-136859427D01*
X40014671Y-136859430D01*
X40007873Y-136865287D01*
X40002993Y-136872816D01*
X40002992Y-136872817D01*
X39993906Y-136886835D01*
X39982615Y-136901709D01*
X39971569Y-136914217D01*
X39965622Y-136920951D01*
X39959312Y-136934391D01*
X39953058Y-136947711D01*
X39944737Y-136962691D01*
X39933529Y-136979983D01*
X39933527Y-136979988D01*
X39928648Y-136987515D01*
X39926078Y-136996108D01*
X39926076Y-136996113D01*
X39921289Y-137012120D01*
X39914628Y-137029564D01*
X39907533Y-137044676D01*
X39903719Y-137052800D01*
X39902338Y-137061667D01*
X39902338Y-137061668D01*
X39899170Y-137082015D01*
X39895387Y-137098732D01*
X39889485Y-137118466D01*
X39889484Y-137118472D01*
X39886914Y-137127066D01*
X39886859Y-137136037D01*
X39886859Y-137136038D01*
X39886704Y-137161497D01*
X39886671Y-137162289D01*
X39886500Y-137163386D01*
X39886500Y-137194377D01*
X39886498Y-137195147D01*
X39886024Y-137272721D01*
X39886408Y-137274065D01*
X39886500Y-137275410D01*
X39886500Y-156194377D01*
X39886498Y-156195147D01*
X39886024Y-156272721D01*
X30692500Y-156272721D01*
X30692500Y-132705333D01*
X36065066Y-132705333D01*
X36081866Y-132996696D01*
X36082691Y-133000901D01*
X36082692Y-133000909D01*
X36110205Y-133141141D01*
X36138053Y-133283084D01*
X36139440Y-133287135D01*
X36187602Y-133427804D01*
X36232587Y-133559196D01*
X36234512Y-133563023D01*
X36234513Y-133563026D01*
X36338339Y-133769462D01*
X36363719Y-133819924D01*
X36529023Y-134060443D01*
X36531910Y-134063616D01*
X36531911Y-134063617D01*
X36579281Y-134115676D01*
X36725440Y-134276302D01*
X36728729Y-134279052D01*
X36946043Y-134460755D01*
X36946048Y-134460759D01*
X36949335Y-134463507D01*
X37072950Y-134541051D01*
X37192925Y-134616311D01*
X37192929Y-134616313D01*
X37196565Y-134618594D01*
X37329560Y-134678644D01*
X37458643Y-134736928D01*
X37458647Y-134736930D01*
X37462555Y-134738694D01*
X37466675Y-134739914D01*
X37466674Y-134739914D01*
X37738271Y-134820365D01*
X37738275Y-134820366D01*
X37742384Y-134821583D01*
X37746618Y-134822231D01*
X37746623Y-134822232D01*
X37999904Y-134860989D01*
X38030873Y-134865728D01*
X38179464Y-134868062D01*
X38318393Y-134870245D01*
X38318399Y-134870245D01*
X38322684Y-134870312D01*
X38612418Y-134835250D01*
X38894712Y-134761192D01*
X38898672Y-134759552D01*
X38898677Y-134759550D01*
X39072521Y-134687541D01*
X39164343Y-134649507D01*
X39214223Y-134620360D01*
X39412615Y-134504429D01*
X39412617Y-134504427D01*
X39416323Y-134502262D01*
X39645988Y-134322182D01*
X39693524Y-134273129D01*
X39846105Y-134115676D01*
X39849088Y-134112598D01*
X39851621Y-134109150D01*
X39851625Y-134109145D01*
X40019327Y-133880846D01*
X40021865Y-133877391D01*
X40023911Y-133873623D01*
X40159072Y-133624686D01*
X40159073Y-133624684D01*
X40161122Y-133620910D01*
X40264283Y-133347904D01*
X40311638Y-133141141D01*
X97571888Y-133141141D01*
X97571983Y-133144770D01*
X97571983Y-133144772D01*
X97572729Y-133173243D01*
X97572729Y-133173245D01*
X97579395Y-133427804D01*
X97580970Y-133487971D01*
X97629856Y-133831460D01*
X97717897Y-134167053D01*
X97843927Y-134490303D01*
X97845624Y-134493508D01*
X97979113Y-134745625D01*
X98006275Y-134796926D01*
X98008325Y-134799909D01*
X98008327Y-134799912D01*
X98200733Y-135079864D01*
X98200739Y-135079871D01*
X98202790Y-135082856D01*
X98430866Y-135344305D01*
X98433551Y-135346748D01*
X98643268Y-135537575D01*
X98687481Y-135577806D01*
X98969233Y-135780266D01*
X99272388Y-135949000D01*
X99592928Y-136081772D01*
X99596422Y-136082767D01*
X99596424Y-136082768D01*
X99923103Y-136175825D01*
X99923108Y-136175826D01*
X99926604Y-136176822D01*
X100123304Y-136209033D01*
X100265412Y-136232304D01*
X100265419Y-136232305D01*
X100268993Y-136232890D01*
X100442275Y-136241062D01*
X100611931Y-136249063D01*
X100611932Y-136249063D01*
X100615558Y-136249234D01*
X100624415Y-136248630D01*
X100958073Y-136225884D01*
X100958081Y-136225883D01*
X100961704Y-136225636D01*
X100965279Y-136224973D01*
X100965282Y-136224973D01*
X101299279Y-136163070D01*
X101299283Y-136163069D01*
X101302844Y-136162409D01*
X101634456Y-136060392D01*
X101952145Y-135920936D01*
X102196511Y-135778141D01*
X102248560Y-135747726D01*
X102248562Y-135747725D01*
X102251700Y-135745891D01*
X102254609Y-135743707D01*
X102526244Y-135539758D01*
X102526248Y-135539755D01*
X102529151Y-135537575D01*
X102780819Y-135298750D01*
X103003370Y-135032583D01*
X103193853Y-134742599D01*
X103325438Y-134480971D01*
X103348117Y-134435880D01*
X103348120Y-134435872D01*
X103349744Y-134432644D01*
X103350989Y-134429242D01*
X103467729Y-134110237D01*
X103467730Y-134110233D01*
X103468977Y-134106826D01*
X103469822Y-134103304D01*
X103469825Y-134103296D01*
X103549124Y-133772991D01*
X103549125Y-133772987D01*
X103549971Y-133769462D01*
X103551827Y-133754123D01*
X103591316Y-133427804D01*
X103591316Y-133427797D01*
X103591652Y-133425025D01*
X103597599Y-133235800D01*
X103597438Y-133233004D01*
X103592141Y-133141141D01*
X116113888Y-133141141D01*
X116113983Y-133144770D01*
X116113983Y-133144772D01*
X116114729Y-133173243D01*
X116114729Y-133173245D01*
X116121395Y-133427804D01*
X116122970Y-133487971D01*
X116171856Y-133831460D01*
X116259897Y-134167053D01*
X116385927Y-134490303D01*
X116387624Y-134493508D01*
X116521113Y-134745625D01*
X116548275Y-134796926D01*
X116550325Y-134799909D01*
X116550327Y-134799912D01*
X116742733Y-135079864D01*
X116742739Y-135079871D01*
X116744790Y-135082856D01*
X116972866Y-135344305D01*
X116975551Y-135346748D01*
X117185268Y-135537575D01*
X117229481Y-135577806D01*
X117511233Y-135780266D01*
X117814388Y-135949000D01*
X118134928Y-136081772D01*
X118138422Y-136082767D01*
X118138424Y-136082768D01*
X118465103Y-136175825D01*
X118465108Y-136175826D01*
X118468604Y-136176822D01*
X118665304Y-136209033D01*
X118807412Y-136232304D01*
X118807419Y-136232305D01*
X118810993Y-136232890D01*
X118984275Y-136241062D01*
X119153931Y-136249063D01*
X119153932Y-136249063D01*
X119157558Y-136249234D01*
X119166415Y-136248630D01*
X119500073Y-136225884D01*
X119500081Y-136225883D01*
X119503704Y-136225636D01*
X119507279Y-136224973D01*
X119507282Y-136224973D01*
X119841279Y-136163070D01*
X119841283Y-136163069D01*
X119844844Y-136162409D01*
X120176456Y-136060392D01*
X120494145Y-135920936D01*
X120738511Y-135778141D01*
X120790560Y-135747726D01*
X120790562Y-135747725D01*
X120793700Y-135745891D01*
X120796609Y-135743707D01*
X121068244Y-135539758D01*
X121068248Y-135539755D01*
X121071151Y-135537575D01*
X121322819Y-135298750D01*
X121545370Y-135032583D01*
X121735853Y-134742599D01*
X121867438Y-134480971D01*
X121890117Y-134435880D01*
X121890120Y-134435872D01*
X121891744Y-134432644D01*
X121892989Y-134429242D01*
X122009729Y-134110237D01*
X122009730Y-134110233D01*
X122010977Y-134106826D01*
X122011822Y-134103304D01*
X122011825Y-134103296D01*
X122091124Y-133772991D01*
X122091125Y-133772987D01*
X122091971Y-133769462D01*
X122093827Y-133754123D01*
X122133316Y-133427804D01*
X122133316Y-133427797D01*
X122133652Y-133425025D01*
X122139599Y-133235800D01*
X122139438Y-133233004D01*
X122134141Y-133141141D01*
X134655888Y-133141141D01*
X134655983Y-133144770D01*
X134655983Y-133144772D01*
X134656729Y-133173243D01*
X134656729Y-133173245D01*
X134663395Y-133427804D01*
X134664970Y-133487971D01*
X134713856Y-133831460D01*
X134801897Y-134167053D01*
X134927927Y-134490303D01*
X134929624Y-134493508D01*
X135063113Y-134745625D01*
X135090275Y-134796926D01*
X135092325Y-134799909D01*
X135092327Y-134799912D01*
X135284733Y-135079864D01*
X135284739Y-135079871D01*
X135286790Y-135082856D01*
X135514866Y-135344305D01*
X135517551Y-135346748D01*
X135727268Y-135537575D01*
X135771481Y-135577806D01*
X136053233Y-135780266D01*
X136356388Y-135949000D01*
X136676928Y-136081772D01*
X136680422Y-136082767D01*
X136680424Y-136082768D01*
X137007103Y-136175825D01*
X137007108Y-136175826D01*
X137010604Y-136176822D01*
X137207304Y-136209033D01*
X137349412Y-136232304D01*
X137349419Y-136232305D01*
X137352993Y-136232890D01*
X137526275Y-136241062D01*
X137695931Y-136249063D01*
X137695932Y-136249063D01*
X137699558Y-136249234D01*
X137708415Y-136248630D01*
X138042073Y-136225884D01*
X138042081Y-136225883D01*
X138045704Y-136225636D01*
X138049279Y-136224973D01*
X138049282Y-136224973D01*
X138383279Y-136163070D01*
X138383283Y-136163069D01*
X138386844Y-136162409D01*
X138718456Y-136060392D01*
X139036145Y-135920936D01*
X139280511Y-135778141D01*
X139332560Y-135747726D01*
X139332562Y-135747725D01*
X139335700Y-135745891D01*
X139338609Y-135743707D01*
X139610244Y-135539758D01*
X139610248Y-135539755D01*
X139613151Y-135537575D01*
X139864819Y-135298750D01*
X140087370Y-135032583D01*
X140277853Y-134742599D01*
X140409438Y-134480971D01*
X140432117Y-134435880D01*
X140432120Y-134435872D01*
X140433744Y-134432644D01*
X140434989Y-134429242D01*
X140551729Y-134110237D01*
X140551730Y-134110233D01*
X140552977Y-134106826D01*
X140553822Y-134103304D01*
X140553825Y-134103296D01*
X140633124Y-133772991D01*
X140633125Y-133772987D01*
X140633971Y-133769462D01*
X140635827Y-133754123D01*
X140675316Y-133427804D01*
X140675316Y-133427797D01*
X140675652Y-133425025D01*
X140681599Y-133235800D01*
X140681438Y-133233004D01*
X140661836Y-132893046D01*
X140661835Y-132893041D01*
X140661627Y-132889426D01*
X140641260Y-132772731D01*
X140602600Y-132551215D01*
X140602598Y-132551208D01*
X140601976Y-132547642D01*
X140586153Y-132494222D01*
X140527991Y-132297874D01*
X140503437Y-132214980D01*
X140502013Y-132211641D01*
X140368740Y-131899186D01*
X140368738Y-131899183D01*
X140367316Y-131895848D01*
X140358151Y-131879779D01*
X140197208Y-131597616D01*
X140195417Y-131594476D01*
X139990018Y-131314860D01*
X139753842Y-131060704D01*
X139490019Y-130835378D01*
X139202047Y-130641869D01*
X139170930Y-130625808D01*
X138896961Y-130484402D01*
X138893741Y-130482740D01*
X138569189Y-130360102D01*
X138565668Y-130359218D01*
X138565663Y-130359216D01*
X138404378Y-130318704D01*
X138232692Y-130275580D01*
X138210476Y-130272655D01*
X137892315Y-130230768D01*
X137892307Y-130230767D01*
X137888711Y-130230294D01*
X137744045Y-130228021D01*
X137545446Y-130224901D01*
X137545442Y-130224901D01*
X137541804Y-130224844D01*
X137538190Y-130225205D01*
X137538184Y-130225205D01*
X137294843Y-130249494D01*
X137196569Y-130259303D01*
X136857583Y-130333214D01*
X136854156Y-130334387D01*
X136854150Y-130334389D01*
X136775296Y-130361387D01*
X136529339Y-130445597D01*
X136216188Y-130594963D01*
X135922279Y-130779332D01*
X135919443Y-130781604D01*
X135919436Y-130781609D01*
X135691950Y-130963860D01*
X135651509Y-130996259D01*
X135407466Y-131242871D01*
X135405225Y-131245729D01*
X135315440Y-131360237D01*
X135193386Y-131515898D01*
X135191493Y-131518987D01*
X135191491Y-131518990D01*
X135145677Y-131593752D01*
X135012105Y-131811721D01*
X135010580Y-131815006D01*
X135010578Y-131815010D01*
X134971505Y-131899186D01*
X134866027Y-132126420D01*
X134757087Y-132455823D01*
X134756351Y-132459378D01*
X134756350Y-132459381D01*
X134688587Y-132786597D01*
X134686730Y-132795564D01*
X134686408Y-132799175D01*
X134659309Y-133102815D01*
X134655888Y-133141141D01*
X122134141Y-133141141D01*
X122119836Y-132893046D01*
X122119835Y-132893041D01*
X122119627Y-132889426D01*
X122099260Y-132772731D01*
X122060600Y-132551215D01*
X122060598Y-132551208D01*
X122059976Y-132547642D01*
X122044153Y-132494222D01*
X121985991Y-132297874D01*
X121961437Y-132214980D01*
X121960013Y-132211641D01*
X121826740Y-131899186D01*
X121826738Y-131899183D01*
X121825316Y-131895848D01*
X121816151Y-131879779D01*
X121655208Y-131597616D01*
X121653417Y-131594476D01*
X121448018Y-131314860D01*
X121211842Y-131060704D01*
X120948019Y-130835378D01*
X120660047Y-130641869D01*
X120628930Y-130625808D01*
X120354961Y-130484402D01*
X120351741Y-130482740D01*
X120027189Y-130360102D01*
X120023668Y-130359218D01*
X120023663Y-130359216D01*
X119862378Y-130318704D01*
X119690692Y-130275580D01*
X119668476Y-130272655D01*
X119350315Y-130230768D01*
X119350307Y-130230767D01*
X119346711Y-130230294D01*
X119202045Y-130228021D01*
X119003446Y-130224901D01*
X119003442Y-130224901D01*
X118999804Y-130224844D01*
X118996190Y-130225205D01*
X118996184Y-130225205D01*
X118752843Y-130249494D01*
X118654569Y-130259303D01*
X118315583Y-130333214D01*
X118312156Y-130334387D01*
X118312150Y-130334389D01*
X118233296Y-130361387D01*
X117987339Y-130445597D01*
X117674188Y-130594963D01*
X117380279Y-130779332D01*
X117377443Y-130781604D01*
X117377436Y-130781609D01*
X117149950Y-130963860D01*
X117109509Y-130996259D01*
X116865466Y-131242871D01*
X116863225Y-131245729D01*
X116773440Y-131360237D01*
X116651386Y-131515898D01*
X116649493Y-131518987D01*
X116649491Y-131518990D01*
X116603677Y-131593752D01*
X116470105Y-131811721D01*
X116468580Y-131815006D01*
X116468578Y-131815010D01*
X116429505Y-131899186D01*
X116324027Y-132126420D01*
X116215087Y-132455823D01*
X116214351Y-132459378D01*
X116214350Y-132459381D01*
X116146587Y-132786597D01*
X116144730Y-132795564D01*
X116144408Y-132799175D01*
X116117309Y-133102815D01*
X116113888Y-133141141D01*
X103592141Y-133141141D01*
X103577836Y-132893046D01*
X103577835Y-132893041D01*
X103577627Y-132889426D01*
X103557260Y-132772731D01*
X103518600Y-132551215D01*
X103518598Y-132551208D01*
X103517976Y-132547642D01*
X103502153Y-132494222D01*
X103443991Y-132297874D01*
X103419437Y-132214980D01*
X103418013Y-132211641D01*
X103284740Y-131899186D01*
X103284738Y-131899183D01*
X103283316Y-131895848D01*
X103274151Y-131879779D01*
X103113208Y-131597616D01*
X103111417Y-131594476D01*
X102906018Y-131314860D01*
X102669842Y-131060704D01*
X102406019Y-130835378D01*
X102118047Y-130641869D01*
X102086930Y-130625808D01*
X101812961Y-130484402D01*
X101809741Y-130482740D01*
X101485189Y-130360102D01*
X101481668Y-130359218D01*
X101481663Y-130359216D01*
X101320378Y-130318704D01*
X101148692Y-130275580D01*
X101126476Y-130272655D01*
X100808315Y-130230768D01*
X100808307Y-130230767D01*
X100804711Y-130230294D01*
X100660045Y-130228021D01*
X100461446Y-130224901D01*
X100461442Y-130224901D01*
X100457804Y-130224844D01*
X100454190Y-130225205D01*
X100454184Y-130225205D01*
X100210843Y-130249494D01*
X100112569Y-130259303D01*
X99773583Y-130333214D01*
X99770156Y-130334387D01*
X99770150Y-130334389D01*
X99691296Y-130361387D01*
X99445339Y-130445597D01*
X99132188Y-130594963D01*
X98838279Y-130779332D01*
X98835443Y-130781604D01*
X98835436Y-130781609D01*
X98607950Y-130963860D01*
X98567509Y-130996259D01*
X98323466Y-131242871D01*
X98321225Y-131245729D01*
X98231440Y-131360237D01*
X98109386Y-131515898D01*
X98107493Y-131518987D01*
X98107491Y-131518990D01*
X98061677Y-131593752D01*
X97928105Y-131811721D01*
X97926580Y-131815006D01*
X97926578Y-131815010D01*
X97887505Y-131899186D01*
X97782027Y-132126420D01*
X97673087Y-132455823D01*
X97672351Y-132459378D01*
X97672350Y-132459381D01*
X97604587Y-132786597D01*
X97602730Y-132795564D01*
X97602408Y-132799175D01*
X97575309Y-133102815D01*
X97571888Y-133141141D01*
X40311638Y-133141141D01*
X40328481Y-133067602D01*
X40328481Y-133067600D01*
X40329438Y-133063423D01*
X40355381Y-132772731D01*
X40355852Y-132727800D01*
X40341895Y-132523067D01*
X40336294Y-132440906D01*
X40336293Y-132440900D01*
X40336002Y-132436629D01*
X40276819Y-132150845D01*
X40179398Y-131875738D01*
X40045543Y-131616398D01*
X40039510Y-131607813D01*
X39880192Y-131381128D01*
X39877729Y-131377623D01*
X39768431Y-131260004D01*
X39681984Y-131166976D01*
X39681981Y-131166973D01*
X39679063Y-131163833D01*
X39675747Y-131161119D01*
X39675744Y-131161116D01*
X39456538Y-130981698D01*
X39453220Y-130978982D01*
X39275773Y-130870243D01*
X39208041Y-130828737D01*
X39208040Y-130828737D01*
X39204379Y-130826493D01*
X39200443Y-130824765D01*
X38941074Y-130710909D01*
X38941070Y-130710908D01*
X38937146Y-130709185D01*
X38656465Y-130629231D01*
X38429257Y-130596895D01*
X38371781Y-130588715D01*
X38371779Y-130588715D01*
X38367529Y-130588110D01*
X38213652Y-130587304D01*
X38079972Y-130586604D01*
X38079966Y-130586604D01*
X38075686Y-130586582D01*
X38071442Y-130587141D01*
X38071438Y-130587141D01*
X37944507Y-130603852D01*
X37786336Y-130624675D01*
X37782196Y-130625808D01*
X37782194Y-130625808D01*
X37716105Y-130643888D01*
X37504832Y-130701686D01*
X37236385Y-130816188D01*
X37200388Y-130837732D01*
X36989643Y-130963860D01*
X36989639Y-130963863D01*
X36985961Y-130966064D01*
X36758195Y-131148539D01*
X36557301Y-131360237D01*
X36386996Y-131597242D01*
X36250432Y-131855166D01*
X36150136Y-132129238D01*
X36087964Y-132414386D01*
X36065612Y-132698392D01*
X36065066Y-132705333D01*
X30692500Y-132705333D01*
X30692500Y-87642800D01*
X69209540Y-87642800D01*
X69228593Y-88855678D01*
X69285735Y-90067359D01*
X69380908Y-91276648D01*
X69514019Y-92482350D01*
X69684936Y-93683276D01*
X69685101Y-93684220D01*
X69860070Y-94686745D01*
X69893491Y-94878241D01*
X70139477Y-96066065D01*
X70422653Y-97245577D01*
X70742738Y-98415612D01*
X71099417Y-99575015D01*
X71492338Y-100722643D01*
X71921113Y-101857363D01*
X71921482Y-101858253D01*
X71921486Y-101858264D01*
X72217202Y-102572185D01*
X72385318Y-102978054D01*
X72884497Y-104083612D01*
X73418155Y-105172944D01*
X73985767Y-106244976D01*
X74586772Y-107298650D01*
X75220577Y-108332927D01*
X75221091Y-108333709D01*
X75221104Y-108333730D01*
X75886038Y-109345995D01*
X75886059Y-109346026D01*
X75886557Y-109346784D01*
X76584055Y-110339222D01*
X76584650Y-110340014D01*
X76584662Y-110340031D01*
X77311764Y-111308441D01*
X77311782Y-111308464D01*
X77312381Y-111309262D01*
X78070818Y-112255946D01*
X78858616Y-113178339D01*
X78859242Y-113179027D01*
X78859257Y-113179044D01*
X79674349Y-114074818D01*
X79674999Y-114075532D01*
X80519161Y-114946639D01*
X81390268Y-115790801D01*
X81390972Y-115791441D01*
X81390982Y-115791451D01*
X82286756Y-116606543D01*
X82286773Y-116606558D01*
X82287461Y-116607184D01*
X83209854Y-117394982D01*
X84156538Y-118153419D01*
X84157336Y-118154018D01*
X84157359Y-118154036D01*
X85125769Y-118881138D01*
X85125786Y-118881150D01*
X85126578Y-118881745D01*
X86119016Y-119579243D01*
X86119774Y-119579741D01*
X86119805Y-119579762D01*
X87132070Y-120244696D01*
X87132091Y-120244709D01*
X87132873Y-120245223D01*
X87133674Y-120245714D01*
X87133690Y-120245724D01*
X88166321Y-120878520D01*
X88167150Y-120879028D01*
X89220824Y-121480033D01*
X90292856Y-122047645D01*
X91382188Y-122581303D01*
X91383083Y-122581707D01*
X91383087Y-122581709D01*
X92261696Y-122978416D01*
X92487746Y-123080482D01*
X92488656Y-123080859D01*
X92488670Y-123080865D01*
X93607536Y-123544314D01*
X93608437Y-123544687D01*
X94743157Y-123973462D01*
X94744047Y-123973767D01*
X94744070Y-123973775D01*
X95727400Y-124310444D01*
X95890785Y-124366383D01*
X97050188Y-124723062D01*
X97678022Y-124894818D01*
X98219253Y-125042882D01*
X98219274Y-125042887D01*
X98220223Y-125043147D01*
X98707459Y-125160122D01*
X99398780Y-125326094D01*
X99398796Y-125326098D01*
X99399735Y-125326323D01*
X99967743Y-125443951D01*
X100586606Y-125572112D01*
X100586628Y-125572116D01*
X100587559Y-125572309D01*
X100588485Y-125572471D01*
X100588508Y-125572475D01*
X101307928Y-125698034D01*
X101782524Y-125780864D01*
X102394682Y-125867987D01*
X102982463Y-125951641D01*
X102982492Y-125951645D01*
X102983450Y-125951781D01*
X102984427Y-125951889D01*
X102984444Y-125951891D01*
X103811793Y-126043231D01*
X104189152Y-126084892D01*
X104190085Y-126084965D01*
X104190091Y-126084966D01*
X104405864Y-126101948D01*
X105398441Y-126180065D01*
X106610122Y-126237207D01*
X106611114Y-126237223D01*
X106611127Y-126237223D01*
X107821981Y-126256244D01*
X107823000Y-126256260D01*
X107824019Y-126256244D01*
X109034873Y-126237223D01*
X109034886Y-126237223D01*
X109035878Y-126237207D01*
X110247559Y-126180065D01*
X111240136Y-126101948D01*
X111455909Y-126084966D01*
X111455915Y-126084965D01*
X111456848Y-126084892D01*
X111834207Y-126043231D01*
X112661556Y-125951891D01*
X112661573Y-125951889D01*
X112662550Y-125951781D01*
X112663508Y-125951645D01*
X112663537Y-125951641D01*
X113251318Y-125867987D01*
X113863476Y-125780864D01*
X114338072Y-125698034D01*
X115057492Y-125572475D01*
X115057515Y-125572471D01*
X115058441Y-125572309D01*
X115059372Y-125572116D01*
X115059394Y-125572112D01*
X115678257Y-125443951D01*
X116246265Y-125326323D01*
X116247204Y-125326098D01*
X116247220Y-125326094D01*
X116938541Y-125160122D01*
X117425777Y-125043147D01*
X117426726Y-125042887D01*
X117426747Y-125042882D01*
X117967978Y-124894818D01*
X118595812Y-124723062D01*
X119755215Y-124366383D01*
X119918600Y-124310444D01*
X120901930Y-123973775D01*
X120901953Y-123973767D01*
X120902843Y-123973462D01*
X122037563Y-123544687D01*
X122038464Y-123544314D01*
X123157330Y-123080865D01*
X123157344Y-123080859D01*
X123158254Y-123080482D01*
X123384304Y-122978416D01*
X124262913Y-122581709D01*
X124262917Y-122581707D01*
X124263812Y-122581303D01*
X125353144Y-122047645D01*
X126425176Y-121480033D01*
X127478850Y-120879028D01*
X127479679Y-120878520D01*
X128512310Y-120245724D01*
X128512326Y-120245714D01*
X128513127Y-120245223D01*
X128513909Y-120244709D01*
X128513930Y-120244696D01*
X129526195Y-119579762D01*
X129526226Y-119579741D01*
X129526984Y-119579243D01*
X130519422Y-118881745D01*
X130520214Y-118881150D01*
X130520231Y-118881138D01*
X131488641Y-118154036D01*
X131488664Y-118154018D01*
X131489462Y-118153419D01*
X132436146Y-117394982D01*
X133358539Y-116607184D01*
X133359227Y-116606558D01*
X133359244Y-116606543D01*
X134255018Y-115791451D01*
X134255028Y-115791441D01*
X134255732Y-115790801D01*
X135126839Y-114946639D01*
X135971001Y-114075532D01*
X135971651Y-114074818D01*
X136786743Y-113179044D01*
X136786758Y-113179027D01*
X136787384Y-113178339D01*
X137575182Y-112255946D01*
X138333619Y-111309262D01*
X138334218Y-111308464D01*
X138334236Y-111308441D01*
X139061338Y-110340031D01*
X139061350Y-110340014D01*
X139061945Y-110339222D01*
X139759443Y-109346784D01*
X139759941Y-109346026D01*
X139759962Y-109345995D01*
X140424896Y-108333730D01*
X140424909Y-108333709D01*
X140425423Y-108332927D01*
X141059228Y-107298650D01*
X141660233Y-106244976D01*
X142227845Y-105172944D01*
X142761503Y-104083612D01*
X143260682Y-102978054D01*
X143428799Y-102572185D01*
X143724514Y-101858264D01*
X143724518Y-101858253D01*
X143724887Y-101857363D01*
X144153662Y-100722643D01*
X144546583Y-99575015D01*
X144903262Y-98415612D01*
X145223347Y-97245577D01*
X145506523Y-96066065D01*
X145752509Y-94878241D01*
X145785931Y-94686745D01*
X145960899Y-93684220D01*
X145961064Y-93683276D01*
X146131981Y-92482350D01*
X146265092Y-91276648D01*
X146360265Y-90067359D01*
X146417407Y-88855678D01*
X146436460Y-87642800D01*
X146417407Y-86429922D01*
X146360265Y-85218241D01*
X146265092Y-84008952D01*
X146131981Y-82803250D01*
X145961064Y-81602324D01*
X145878234Y-81127728D01*
X145752675Y-80408308D01*
X145752671Y-80408285D01*
X145752509Y-80407359D01*
X145506523Y-79219535D01*
X145223347Y-78040023D01*
X144903262Y-76869988D01*
X144546583Y-75710585D01*
X144153662Y-74562957D01*
X143724887Y-73428237D01*
X143724514Y-73427336D01*
X143261065Y-72308470D01*
X143261059Y-72308456D01*
X143260682Y-72307546D01*
X142761503Y-71201988D01*
X142227845Y-70112656D01*
X141660233Y-69040624D01*
X141059228Y-67986950D01*
X140425423Y-66952673D01*
X140424896Y-66951870D01*
X139759962Y-65939605D01*
X139759941Y-65939574D01*
X139759443Y-65938816D01*
X139061945Y-64946378D01*
X139061338Y-64945569D01*
X138334236Y-63977159D01*
X138334218Y-63977136D01*
X138333619Y-63976338D01*
X137575182Y-63029654D01*
X137364601Y-62783095D01*
X136788024Y-62108010D01*
X136788014Y-62107999D01*
X136787384Y-62107261D01*
X136786758Y-62106573D01*
X136786743Y-62106556D01*
X135971651Y-61210782D01*
X135971641Y-61210772D01*
X135971001Y-61210068D01*
X135942415Y-61180569D01*
X135127497Y-60339640D01*
X135126839Y-60338961D01*
X134864970Y-60085192D01*
X134256439Y-59495484D01*
X134256435Y-59495480D01*
X134255732Y-59494799D01*
X134191770Y-59436598D01*
X133359244Y-58679057D01*
X133359227Y-58679042D01*
X133358539Y-58678416D01*
X133350915Y-58671904D01*
X132598561Y-58029333D01*
X140729666Y-58029333D01*
X140746466Y-58320696D01*
X140747291Y-58324901D01*
X140747292Y-58324909D01*
X140783360Y-58508748D01*
X140802653Y-58607084D01*
X140897187Y-58883196D01*
X140899112Y-58887023D01*
X140899113Y-58887026D01*
X141023257Y-59133859D01*
X141028319Y-59143924D01*
X141110971Y-59264183D01*
X141170389Y-59350637D01*
X141193623Y-59384443D01*
X141196510Y-59387616D01*
X141196511Y-59387617D01*
X141243881Y-59439676D01*
X141390040Y-59600302D01*
X141393329Y-59603052D01*
X141610643Y-59784755D01*
X141610648Y-59784759D01*
X141613935Y-59787507D01*
X141737550Y-59865050D01*
X141857525Y-59940311D01*
X141857529Y-59940313D01*
X141861165Y-59942594D01*
X141954494Y-59984734D01*
X142123243Y-60060928D01*
X142123247Y-60060930D01*
X142127155Y-60062694D01*
X142131275Y-60063914D01*
X142131274Y-60063914D01*
X142402871Y-60144365D01*
X142402875Y-60144366D01*
X142406984Y-60145583D01*
X142411218Y-60146231D01*
X142411223Y-60146232D01*
X142664504Y-60184989D01*
X142695473Y-60189728D01*
X142844064Y-60192062D01*
X142982993Y-60194245D01*
X142982999Y-60194245D01*
X142987284Y-60194312D01*
X143277018Y-60159250D01*
X143559312Y-60085192D01*
X143563272Y-60083552D01*
X143563277Y-60083550D01*
X143720209Y-60018546D01*
X143828943Y-59973507D01*
X143878823Y-59944360D01*
X144077215Y-59828429D01*
X144077217Y-59828427D01*
X144080923Y-59826262D01*
X144310588Y-59646182D01*
X144358124Y-59597129D01*
X144510705Y-59439676D01*
X144513688Y-59436598D01*
X144516221Y-59433150D01*
X144516225Y-59433145D01*
X144683927Y-59204846D01*
X144686465Y-59201391D01*
X144688511Y-59197623D01*
X144823672Y-58948686D01*
X144823673Y-58948684D01*
X144825722Y-58944910D01*
X144928883Y-58671904D01*
X144994038Y-58387423D01*
X145019981Y-58096731D01*
X145020452Y-58051800D01*
X145006495Y-57847067D01*
X145000894Y-57764906D01*
X145000893Y-57764900D01*
X145000602Y-57760629D01*
X144941419Y-57474845D01*
X144843998Y-57199738D01*
X144710143Y-56940398D01*
X144704110Y-56931813D01*
X144544792Y-56705128D01*
X144542329Y-56701623D01*
X144402920Y-56551601D01*
X144346584Y-56490976D01*
X144346581Y-56490973D01*
X144343663Y-56487833D01*
X144340347Y-56485119D01*
X144340344Y-56485116D01*
X144121138Y-56305698D01*
X144117820Y-56302982D01*
X143868979Y-56150493D01*
X143865043Y-56148765D01*
X143605674Y-56034909D01*
X143605670Y-56034908D01*
X143601746Y-56033185D01*
X143321065Y-55953231D01*
X143105246Y-55922516D01*
X143036381Y-55912715D01*
X143036379Y-55912715D01*
X143032129Y-55912110D01*
X142878252Y-55911304D01*
X142744572Y-55910604D01*
X142744566Y-55910604D01*
X142740286Y-55910582D01*
X142736042Y-55911141D01*
X142736038Y-55911141D01*
X142609107Y-55927852D01*
X142450936Y-55948675D01*
X142169432Y-56025686D01*
X141900985Y-56140188D01*
X141749873Y-56230627D01*
X141654243Y-56287860D01*
X141654239Y-56287863D01*
X141650561Y-56290064D01*
X141422795Y-56472539D01*
X141419848Y-56475645D01*
X141228787Y-56676981D01*
X141221901Y-56684237D01*
X141051596Y-56921242D01*
X140915032Y-57179166D01*
X140913557Y-57183197D01*
X140857092Y-57337496D01*
X140814736Y-57453238D01*
X140752564Y-57738386D01*
X140730212Y-58022392D01*
X140729666Y-58029333D01*
X132598561Y-58029333D01*
X132436940Y-57891296D01*
X132436935Y-57891292D01*
X132436146Y-57890618D01*
X131489462Y-57132181D01*
X131488664Y-57131582D01*
X131488641Y-57131564D01*
X130520231Y-56404462D01*
X130520214Y-56404450D01*
X130519422Y-56403855D01*
X130379759Y-56305698D01*
X129527757Y-55706900D01*
X129527745Y-55706892D01*
X129526984Y-55706357D01*
X129526226Y-55705859D01*
X129526195Y-55705838D01*
X128513930Y-55040904D01*
X128513909Y-55040891D01*
X128513127Y-55040377D01*
X128512326Y-55039886D01*
X128512310Y-55039876D01*
X127479679Y-54407080D01*
X127479678Y-54407080D01*
X127478850Y-54406572D01*
X126425176Y-53805567D01*
X125353144Y-53237955D01*
X124263812Y-52704297D01*
X124234600Y-52691107D01*
X123159162Y-52205528D01*
X123158254Y-52205118D01*
X123157344Y-52204741D01*
X123157330Y-52204735D01*
X122038464Y-51741286D01*
X122038453Y-51741282D01*
X122037563Y-51740913D01*
X120902843Y-51312138D01*
X120901953Y-51311833D01*
X120901930Y-51311825D01*
X119756129Y-50919530D01*
X119755215Y-50919217D01*
X118595812Y-50562538D01*
X117799482Y-50344687D01*
X117426747Y-50242718D01*
X117426726Y-50242713D01*
X117425777Y-50242453D01*
X116528593Y-50027058D01*
X116247220Y-49959506D01*
X116247204Y-49959502D01*
X116246265Y-49959277D01*
X115678257Y-49841649D01*
X115059394Y-49713488D01*
X115059372Y-49713484D01*
X115058441Y-49713291D01*
X115057515Y-49713129D01*
X115057492Y-49713125D01*
X114338072Y-49587566D01*
X113863476Y-49504736D01*
X113675619Y-49478000D01*
X142920540Y-49478000D01*
X142940359Y-49793020D01*
X142999505Y-50103072D01*
X143000732Y-50106848D01*
X143078011Y-50344687D01*
X143097044Y-50403266D01*
X143098731Y-50406852D01*
X143098733Y-50406856D01*
X143229750Y-50685283D01*
X143229754Y-50685290D01*
X143231438Y-50688869D01*
X143400568Y-50955375D01*
X143601767Y-51198582D01*
X143831860Y-51414654D01*
X144087221Y-51600184D01*
X144090690Y-51602091D01*
X144090693Y-51602093D01*
X144343883Y-51741286D01*
X144363821Y-51752247D01*
X144367490Y-51753700D01*
X144367495Y-51753702D01*
X144653628Y-51866990D01*
X144657298Y-51868443D01*
X144963025Y-51946940D01*
X145276179Y-51986500D01*
X145591821Y-51986500D01*
X145904975Y-51946940D01*
X146210702Y-51868443D01*
X146214372Y-51866990D01*
X146500505Y-51753702D01*
X146500510Y-51753700D01*
X146504179Y-51752247D01*
X146524117Y-51741286D01*
X146777307Y-51602093D01*
X146777310Y-51602091D01*
X146780779Y-51600184D01*
X147036140Y-51414654D01*
X147266233Y-51198582D01*
X147467432Y-50955375D01*
X147636562Y-50688869D01*
X147638246Y-50685290D01*
X147638250Y-50685283D01*
X147769267Y-50406856D01*
X147769269Y-50406852D01*
X147770956Y-50403266D01*
X147789990Y-50344687D01*
X147867268Y-50106848D01*
X147868495Y-50103072D01*
X147927641Y-49793020D01*
X147947460Y-49478000D01*
X147927641Y-49162980D01*
X147868495Y-48852928D01*
X147775906Y-48567968D01*
X147772182Y-48556507D01*
X147772182Y-48556506D01*
X147770956Y-48552734D01*
X147764667Y-48539369D01*
X147638250Y-48270717D01*
X147638246Y-48270710D01*
X147636562Y-48267131D01*
X147467432Y-48000625D01*
X147266233Y-47757418D01*
X147036140Y-47541346D01*
X146780779Y-47355816D01*
X146504179Y-47203753D01*
X146500510Y-47202300D01*
X146500505Y-47202298D01*
X146214372Y-47089010D01*
X146214371Y-47089010D01*
X146210702Y-47087557D01*
X145904975Y-47009060D01*
X145591821Y-46969500D01*
X145276179Y-46969500D01*
X144963025Y-47009060D01*
X144657298Y-47087557D01*
X144653629Y-47089010D01*
X144653628Y-47089010D01*
X144367495Y-47202298D01*
X144367490Y-47202300D01*
X144363821Y-47203753D01*
X144087221Y-47355816D01*
X143831860Y-47541346D01*
X143601767Y-47757418D01*
X143400568Y-48000625D01*
X143231438Y-48267131D01*
X143229754Y-48270710D01*
X143229750Y-48270717D01*
X143103333Y-48539369D01*
X143097044Y-48552734D01*
X143095818Y-48556506D01*
X143095818Y-48556507D01*
X143092094Y-48567968D01*
X142999505Y-48852928D01*
X142940359Y-49162980D01*
X142922833Y-49441559D01*
X142920540Y-49478000D01*
X113675619Y-49478000D01*
X113251318Y-49417613D01*
X112663537Y-49333959D01*
X112663508Y-49333955D01*
X112662550Y-49333819D01*
X112661573Y-49333711D01*
X112661556Y-49333709D01*
X111834207Y-49242369D01*
X111456848Y-49200708D01*
X111455915Y-49200635D01*
X111455909Y-49200634D01*
X111240136Y-49183652D01*
X110247559Y-49105535D01*
X109035878Y-49048393D01*
X109034886Y-49048377D01*
X109034873Y-49048377D01*
X107824019Y-49029356D01*
X107823000Y-49029340D01*
X107821981Y-49029356D01*
X106611127Y-49048377D01*
X106611114Y-49048377D01*
X106610122Y-49048393D01*
X105398441Y-49105535D01*
X104405864Y-49183652D01*
X104190091Y-49200634D01*
X104190085Y-49200635D01*
X104189152Y-49200708D01*
X103811793Y-49242369D01*
X102984444Y-49333709D01*
X102984427Y-49333711D01*
X102983450Y-49333819D01*
X102982492Y-49333955D01*
X102982463Y-49333959D01*
X102394682Y-49417613D01*
X101782524Y-49504736D01*
X101307928Y-49587566D01*
X100588508Y-49713125D01*
X100588485Y-49713129D01*
X100587559Y-49713291D01*
X100586628Y-49713484D01*
X100586606Y-49713488D01*
X99967743Y-49841649D01*
X99399735Y-49959277D01*
X99398796Y-49959502D01*
X99398780Y-49959506D01*
X99117407Y-50027058D01*
X98220223Y-50242453D01*
X98219274Y-50242713D01*
X98219253Y-50242718D01*
X97846518Y-50344687D01*
X97050188Y-50562538D01*
X95890785Y-50919217D01*
X95889871Y-50919530D01*
X94744070Y-51311825D01*
X94744047Y-51311833D01*
X94743157Y-51312138D01*
X93608437Y-51740913D01*
X93607547Y-51741282D01*
X93607536Y-51741286D01*
X92488670Y-52204735D01*
X92488656Y-52204741D01*
X92487746Y-52205118D01*
X92486838Y-52205528D01*
X91411401Y-52691107D01*
X91382188Y-52704297D01*
X90292856Y-53237955D01*
X89220824Y-53805567D01*
X88167150Y-54406572D01*
X88166322Y-54407080D01*
X88166321Y-54407080D01*
X87133690Y-55039876D01*
X87133674Y-55039886D01*
X87132873Y-55040377D01*
X87132091Y-55040891D01*
X87132070Y-55040904D01*
X86119805Y-55705838D01*
X86119774Y-55705859D01*
X86119016Y-55706357D01*
X86118255Y-55706892D01*
X86118243Y-55706900D01*
X85266241Y-56305698D01*
X85126578Y-56403855D01*
X85125786Y-56404450D01*
X85125769Y-56404462D01*
X84157359Y-57131564D01*
X84157336Y-57131582D01*
X84156538Y-57132181D01*
X83209854Y-57890618D01*
X83209065Y-57891292D01*
X83209060Y-57891296D01*
X82295086Y-58671904D01*
X82287461Y-58678416D01*
X82286773Y-58679042D01*
X82286756Y-58679057D01*
X81454230Y-59436598D01*
X81390268Y-59494799D01*
X81389565Y-59495480D01*
X81389561Y-59495484D01*
X80781030Y-60085192D01*
X80519161Y-60338961D01*
X80518503Y-60339640D01*
X79703586Y-61180569D01*
X79674999Y-61210068D01*
X79674359Y-61210772D01*
X79674349Y-61210782D01*
X78859257Y-62106556D01*
X78859242Y-62106573D01*
X78858616Y-62107261D01*
X78857986Y-62107999D01*
X78857976Y-62108010D01*
X78281399Y-62783095D01*
X78070818Y-63029654D01*
X77312381Y-63976338D01*
X77311782Y-63977136D01*
X77311764Y-63977159D01*
X76584662Y-64945569D01*
X76584055Y-64946378D01*
X75886557Y-65938816D01*
X75886059Y-65939574D01*
X75886038Y-65939605D01*
X75221104Y-66951870D01*
X75220577Y-66952673D01*
X74586772Y-67986950D01*
X73985767Y-69040624D01*
X73418155Y-70112656D01*
X72884497Y-71201988D01*
X72385318Y-72307546D01*
X72384941Y-72308456D01*
X72384935Y-72308470D01*
X71921486Y-73427336D01*
X71921113Y-73428237D01*
X71492338Y-74562957D01*
X71099417Y-75710585D01*
X70742738Y-76869988D01*
X70422653Y-78040023D01*
X70139477Y-79219535D01*
X69893491Y-80407359D01*
X69893329Y-80408285D01*
X69893325Y-80408308D01*
X69767766Y-81127728D01*
X69684936Y-81602324D01*
X69514019Y-82803250D01*
X69380908Y-84008952D01*
X69285735Y-85218241D01*
X69228593Y-86429922D01*
X69209540Y-87642800D01*
X30692500Y-87642800D01*
X30692500Y-58029333D01*
X36065066Y-58029333D01*
X36081866Y-58320696D01*
X36082691Y-58324901D01*
X36082692Y-58324909D01*
X36118760Y-58508748D01*
X36138053Y-58607084D01*
X36232587Y-58883196D01*
X36234512Y-58887023D01*
X36234513Y-58887026D01*
X36358657Y-59133859D01*
X36363719Y-59143924D01*
X36446371Y-59264183D01*
X36505789Y-59350637D01*
X36529023Y-59384443D01*
X36531910Y-59387616D01*
X36531911Y-59387617D01*
X36579281Y-59439676D01*
X36725440Y-59600302D01*
X36728729Y-59603052D01*
X36946043Y-59784755D01*
X36946048Y-59784759D01*
X36949335Y-59787507D01*
X37072950Y-59865050D01*
X37192925Y-59940311D01*
X37192929Y-59940313D01*
X37196565Y-59942594D01*
X37289894Y-59984734D01*
X37458643Y-60060928D01*
X37458647Y-60060930D01*
X37462555Y-60062694D01*
X37466675Y-60063914D01*
X37466674Y-60063914D01*
X37738271Y-60144365D01*
X37738275Y-60144366D01*
X37742384Y-60145583D01*
X37746618Y-60146231D01*
X37746623Y-60146232D01*
X37999904Y-60184989D01*
X38030873Y-60189728D01*
X38179464Y-60192062D01*
X38318393Y-60194245D01*
X38318399Y-60194245D01*
X38322684Y-60194312D01*
X38612418Y-60159250D01*
X38894712Y-60085192D01*
X38898672Y-60083552D01*
X38898677Y-60083550D01*
X39055609Y-60018546D01*
X39164343Y-59973507D01*
X39214223Y-59944360D01*
X39412615Y-59828429D01*
X39412617Y-59828427D01*
X39416323Y-59826262D01*
X39645988Y-59646182D01*
X39693524Y-59597129D01*
X39846105Y-59439676D01*
X39849088Y-59436598D01*
X39851621Y-59433150D01*
X39851625Y-59433145D01*
X40019327Y-59204846D01*
X40021865Y-59201391D01*
X40023911Y-59197623D01*
X40159072Y-58948686D01*
X40159073Y-58948684D01*
X40161122Y-58944910D01*
X40264283Y-58671904D01*
X40329438Y-58387423D01*
X40355381Y-58096731D01*
X40355852Y-58051800D01*
X40341895Y-57847067D01*
X40336294Y-57764906D01*
X40336293Y-57764900D01*
X40336002Y-57760629D01*
X40276819Y-57474845D01*
X40179398Y-57199738D01*
X40045543Y-56940398D01*
X40039510Y-56931813D01*
X39880192Y-56705128D01*
X39877729Y-56701623D01*
X39738320Y-56551601D01*
X39681984Y-56490976D01*
X39681981Y-56490973D01*
X39679063Y-56487833D01*
X39675747Y-56485119D01*
X39675744Y-56485116D01*
X39456538Y-56305698D01*
X39453220Y-56302982D01*
X39282806Y-56198553D01*
X57155991Y-56198553D01*
X57170190Y-56676981D01*
X57170467Y-56679492D01*
X57170468Y-56679503D01*
X57199271Y-56940398D01*
X57222713Y-57152729D01*
X57223192Y-57155214D01*
X57223192Y-57155217D01*
X57283966Y-57470807D01*
X57313222Y-57622733D01*
X57441133Y-58083964D01*
X57445805Y-58096731D01*
X57604751Y-58531075D01*
X57604756Y-58531086D01*
X57605621Y-58533451D01*
X57606676Y-58535745D01*
X57606679Y-58535752D01*
X57796608Y-58948686D01*
X57805629Y-58968298D01*
X57806872Y-58970512D01*
X57806874Y-58970517D01*
X57820941Y-58995584D01*
X58039866Y-59385704D01*
X58076134Y-59439676D01*
X58263420Y-59718386D01*
X58306825Y-59782980D01*
X58427207Y-59934321D01*
X58595252Y-60145583D01*
X58604784Y-60157567D01*
X58606514Y-60159416D01*
X58606522Y-60159425D01*
X58773914Y-60338303D01*
X58931825Y-60507051D01*
X59285842Y-60829180D01*
X59664552Y-61121881D01*
X60065516Y-61383266D01*
X60067739Y-61384473D01*
X60067744Y-61384476D01*
X60234734Y-61475144D01*
X60486152Y-61611653D01*
X60923750Y-61805570D01*
X60926114Y-61806398D01*
X60926127Y-61806403D01*
X61373113Y-61962935D01*
X61375489Y-61963767D01*
X61838461Y-62085225D01*
X62309682Y-62169162D01*
X62312188Y-62169403D01*
X62312193Y-62169404D01*
X62492273Y-62186744D01*
X62786118Y-62215038D01*
X62788653Y-62215078D01*
X62788656Y-62215078D01*
X62942244Y-62217491D01*
X63264697Y-62222556D01*
X63267216Y-62222393D01*
X63267220Y-62222393D01*
X63739804Y-62191832D01*
X63739807Y-62191832D01*
X63742338Y-62191668D01*
X63744841Y-62191303D01*
X63744849Y-62191302D01*
X63979151Y-62157121D01*
X64215964Y-62122574D01*
X64682522Y-62015718D01*
X65139008Y-61871788D01*
X65300033Y-61806403D01*
X65580149Y-61692660D01*
X65580151Y-61692659D01*
X65582481Y-61691713D01*
X65794586Y-61585035D01*
X66007835Y-61477782D01*
X66007842Y-61477778D01*
X66010083Y-61476651D01*
X66419060Y-61227989D01*
X66421094Y-61226517D01*
X66421101Y-61226512D01*
X66568581Y-61119754D01*
X66806777Y-60947329D01*
X67170737Y-60636478D01*
X67508594Y-60297439D01*
X67600490Y-60189079D01*
X67816541Y-59934321D01*
X67816547Y-59934313D01*
X67818173Y-59932396D01*
X67927059Y-59780866D01*
X68096004Y-59545753D01*
X68097478Y-59543702D01*
X68344711Y-59133859D01*
X68558279Y-58705509D01*
X68596217Y-58611135D01*
X68735859Y-58263764D01*
X68735861Y-58263758D01*
X68736805Y-58261410D01*
X68879140Y-57804425D01*
X68957339Y-57457430D01*
X68983811Y-57339964D01*
X68983812Y-57339960D01*
X68984367Y-57337496D01*
X69051808Y-56863633D01*
X69081028Y-56385887D01*
X69082336Y-56261000D01*
X69068262Y-55910604D01*
X69063229Y-55785282D01*
X69063229Y-55785277D01*
X69063127Y-55782747D01*
X69005625Y-55307575D01*
X69005124Y-55305113D01*
X69005122Y-55305100D01*
X68910705Y-54841029D01*
X68910200Y-54838545D01*
X68785517Y-54406572D01*
X68778168Y-54381110D01*
X68778166Y-54381103D01*
X68777466Y-54378679D01*
X68608280Y-53930939D01*
X68403730Y-53498210D01*
X68402483Y-53496042D01*
X68402476Y-53496028D01*
X68199490Y-53143027D01*
X68165134Y-53083280D01*
X67894030Y-52688821D01*
X67592164Y-52317375D01*
X67261481Y-51971335D01*
X67234659Y-51947437D01*
X67015582Y-51752247D01*
X66904111Y-51652930D01*
X66522357Y-51364211D01*
X66118677Y-51107039D01*
X66116440Y-51105855D01*
X66116427Y-51105847D01*
X65697919Y-50884259D01*
X65697915Y-50884257D01*
X65695673Y-50883070D01*
X65256068Y-50693746D01*
X64802697Y-50540288D01*
X64338479Y-50423685D01*
X64335998Y-50423270D01*
X64335994Y-50423269D01*
X64180361Y-50397225D01*
X63866404Y-50344687D01*
X63389515Y-50303803D01*
X63134126Y-50302466D01*
X62913414Y-50301310D01*
X62913408Y-50301310D01*
X62910883Y-50301297D01*
X62759185Y-50312703D01*
X62436127Y-50336993D01*
X62436119Y-50336994D01*
X62433591Y-50337184D01*
X61960715Y-50411235D01*
X61495301Y-50522971D01*
X61492911Y-50523752D01*
X61492901Y-50523755D01*
X61042746Y-50670889D01*
X61042741Y-50670891D01*
X61040348Y-50671673D01*
X60598785Y-50856382D01*
X60173459Y-51075910D01*
X60121254Y-51108405D01*
X59769257Y-51327503D01*
X59769251Y-51327507D01*
X59767108Y-51328841D01*
X59647992Y-51416982D01*
X59397829Y-51602093D01*
X59382351Y-51613546D01*
X59380455Y-51615200D01*
X59380450Y-51615204D01*
X59225541Y-51750340D01*
X59021666Y-51928191D01*
X59004331Y-51945955D01*
X58751425Y-52205118D01*
X58687378Y-52270749D01*
X58685769Y-52272686D01*
X58685760Y-52272697D01*
X58648668Y-52317375D01*
X58381639Y-52639014D01*
X58380186Y-52641081D01*
X58380184Y-52641084D01*
X58335757Y-52704297D01*
X58106419Y-53030612D01*
X58105137Y-53032789D01*
X58105136Y-53032790D01*
X57902127Y-53377431D01*
X57863491Y-53443021D01*
X57862387Y-53445294D01*
X57862383Y-53445302D01*
X57655528Y-53871303D01*
X57655523Y-53871315D01*
X57654421Y-53873584D01*
X57480555Y-54319528D01*
X57343013Y-54777979D01*
X57342487Y-54780430D01*
X57342485Y-54780440D01*
X57329496Y-54841029D01*
X57242682Y-55245984D01*
X57242353Y-55248484D01*
X57182073Y-55706357D01*
X57180207Y-55720527D01*
X57180080Y-55723041D01*
X57180079Y-55723048D01*
X57159380Y-56131647D01*
X57159033Y-56138507D01*
X57155991Y-56198553D01*
X39282806Y-56198553D01*
X39204379Y-56150493D01*
X39200443Y-56148765D01*
X38941074Y-56034909D01*
X38941070Y-56034908D01*
X38937146Y-56033185D01*
X38656465Y-55953231D01*
X38440646Y-55922516D01*
X38371781Y-55912715D01*
X38371779Y-55912715D01*
X38367529Y-55912110D01*
X38213652Y-55911304D01*
X38079972Y-55910604D01*
X38079966Y-55910604D01*
X38075686Y-55910582D01*
X38071442Y-55911141D01*
X38071438Y-55911141D01*
X37944507Y-55927852D01*
X37786336Y-55948675D01*
X37504832Y-56025686D01*
X37236385Y-56140188D01*
X37085273Y-56230627D01*
X36989643Y-56287860D01*
X36989639Y-56287863D01*
X36985961Y-56290064D01*
X36758195Y-56472539D01*
X36755248Y-56475645D01*
X36564187Y-56676981D01*
X36557301Y-56684237D01*
X36386996Y-56921242D01*
X36250432Y-57179166D01*
X36248957Y-57183197D01*
X36192492Y-57337496D01*
X36150136Y-57453238D01*
X36087964Y-57738386D01*
X36065612Y-58022392D01*
X36065066Y-58029333D01*
X30692500Y-58029333D01*
X30692500Y-49781250D01*
X30694246Y-49760345D01*
X30696770Y-49745344D01*
X30696770Y-49745341D01*
X30697576Y-49740552D01*
X30697729Y-49728000D01*
X30697039Y-49723184D01*
X30697039Y-49723178D01*
X30695387Y-49711644D01*
X30694234Y-49688284D01*
X30694353Y-49685577D01*
X30703416Y-49478000D01*
X32420540Y-49478000D01*
X32440359Y-49793020D01*
X32499505Y-50103072D01*
X32500732Y-50106848D01*
X32578011Y-50344687D01*
X32597044Y-50403266D01*
X32598731Y-50406852D01*
X32598733Y-50406856D01*
X32729750Y-50685283D01*
X32729754Y-50685290D01*
X32731438Y-50688869D01*
X32900568Y-50955375D01*
X33101767Y-51198582D01*
X33331860Y-51414654D01*
X33587221Y-51600184D01*
X33590690Y-51602091D01*
X33590693Y-51602093D01*
X33843883Y-51741286D01*
X33863821Y-51752247D01*
X33867490Y-51753700D01*
X33867495Y-51753702D01*
X34153628Y-51866990D01*
X34157298Y-51868443D01*
X34463025Y-51946940D01*
X34776179Y-51986500D01*
X35091821Y-51986500D01*
X35404975Y-51946940D01*
X35710702Y-51868443D01*
X35714372Y-51866990D01*
X36000505Y-51753702D01*
X36000510Y-51753700D01*
X36004179Y-51752247D01*
X36024117Y-51741286D01*
X36277307Y-51602093D01*
X36277310Y-51602091D01*
X36280779Y-51600184D01*
X36536140Y-51414654D01*
X36766233Y-51198582D01*
X36967432Y-50955375D01*
X37136562Y-50688869D01*
X37138246Y-50685290D01*
X37138250Y-50685283D01*
X37269267Y-50406856D01*
X37269269Y-50406852D01*
X37270956Y-50403266D01*
X37289990Y-50344687D01*
X37367268Y-50106848D01*
X37368495Y-50103072D01*
X37427641Y-49793020D01*
X37447460Y-49478000D01*
X37427641Y-49162980D01*
X37368495Y-48852928D01*
X37275906Y-48567968D01*
X37272182Y-48556507D01*
X37272182Y-48556506D01*
X37270956Y-48552734D01*
X37264667Y-48539369D01*
X37138250Y-48270717D01*
X37138246Y-48270710D01*
X37136562Y-48267131D01*
X36967432Y-48000625D01*
X36766233Y-47757418D01*
X36536140Y-47541346D01*
X36280779Y-47355816D01*
X36004179Y-47203753D01*
X36000510Y-47202300D01*
X36000505Y-47202298D01*
X35714372Y-47089010D01*
X35714371Y-47089010D01*
X35710702Y-47087557D01*
X35404975Y-47009060D01*
X35091821Y-46969500D01*
X34776179Y-46969500D01*
X34463025Y-47009060D01*
X34157298Y-47087557D01*
X34153629Y-47089010D01*
X34153628Y-47089010D01*
X33867495Y-47202298D01*
X33867490Y-47202300D01*
X33863821Y-47203753D01*
X33587221Y-47355816D01*
X33331860Y-47541346D01*
X33101767Y-47757418D01*
X32900568Y-48000625D01*
X32731438Y-48267131D01*
X32729754Y-48270710D01*
X32729750Y-48270717D01*
X32603333Y-48539369D01*
X32597044Y-48552734D01*
X32595818Y-48556506D01*
X32595818Y-48556507D01*
X32592094Y-48567968D01*
X32499505Y-48852928D01*
X32440359Y-49162980D01*
X32422833Y-49441559D01*
X32420540Y-49478000D01*
X30703416Y-49478000D01*
X30709352Y-49342035D01*
X30710310Y-49331086D01*
X30723039Y-49234399D01*
X30760019Y-48953502D01*
X30761927Y-48942685D01*
X30844353Y-48570886D01*
X30847198Y-48560268D01*
X30848384Y-48556507D01*
X30961718Y-48197061D01*
X30965474Y-48186739D01*
X31111220Y-47834877D01*
X31115862Y-47824924D01*
X31151004Y-47757418D01*
X31291706Y-47487132D01*
X31297201Y-47477613D01*
X31501820Y-47156426D01*
X31508124Y-47147422D01*
X31739962Y-46845284D01*
X31747028Y-46836863D01*
X32004314Y-46556086D01*
X32012086Y-46548314D01*
X32292863Y-46291028D01*
X32301284Y-46283962D01*
X32603422Y-46052124D01*
X32612426Y-46045820D01*
X32933613Y-45841201D01*
X32943133Y-45835705D01*
X33280933Y-45659858D01*
X33290877Y-45655220D01*
X33642746Y-45509471D01*
X33653061Y-45505718D01*
X34016269Y-45391198D01*
X34026886Y-45388353D01*
X34398693Y-45305926D01*
X34409502Y-45304019D01*
X34787087Y-45254310D01*
X34798035Y-45253352D01*
X35140554Y-45238397D01*
X35165429Y-45239777D01*
X35177724Y-45241691D01*
X35186626Y-45240527D01*
X35186628Y-45240527D01*
X35205399Y-45238072D01*
X35209286Y-45237564D01*
X35225621Y-45236500D01*
X145134633Y-45236500D01*
X145154018Y-45238000D01*
G37*
%TD.AperFunction*%
M02*
