%TF.GenerationSoftware,KiCad,Pcbnew,6.0.11+dfsg-1*%
%TF.CreationDate,2024-04-25T19:10:51-07:00*%
%TF.ProjectId,top_plate,746f705f-706c-4617-9465-2e6b69636164,rev?*%
%TF.SameCoordinates,Original*%
%TF.FileFunction,Profile,NP*%
%FSLAX46Y46*%
G04 Gerber Fmt 4.6, Leading zero omitted, Abs format (unit mm)*
G04 Created by KiCad (PCBNEW 6.0.11+dfsg-1) date 2024-04-25 19:10:51*
%MOMM*%
%LPD*%
G01*
G04 APERTURE LIST*
%TA.AperFunction,Profile*%
%ADD10C,0.100000*%
%TD*%
G04 APERTURE END LIST*
D10*
X150184000Y-49728000D02*
G75*
G03*
X145184000Y-44728000I-5000000J0D01*
G01*
X103759000Y-147048100D02*
G75*
G03*
X103759000Y-147048100I-3175000J0D01*
G01*
X39842350Y-132727800D02*
G75*
G03*
X39842350Y-132727800I-1631950J0D01*
G01*
X30184000Y-159728000D02*
X30184000Y-49728000D01*
X35184000Y-44728000D02*
G75*
G03*
X30184000Y-49728000I0J-5000000D01*
G01*
X147434000Y-49478000D02*
G75*
G03*
X147434000Y-49478000I-2000000J0D01*
G01*
X40395000Y-156203000D02*
X90395000Y-156203000D01*
X90395000Y-156203000D02*
X90395000Y-137203000D01*
X90395000Y-137203000D02*
X40395000Y-137203000D01*
X40395000Y-137203000D02*
X40395000Y-156203000D01*
X145184000Y-164728000D02*
G75*
G03*
X150184000Y-159728000I0J5000000D01*
G01*
X147434000Y-159978000D02*
G75*
G03*
X147434000Y-159978000I-2000000J0D01*
G01*
X140168000Y-133235800D02*
G75*
G03*
X140168000Y-133235800I-2500000J0D01*
G01*
X145923000Y-87642800D02*
G75*
G03*
X145923000Y-87642800I-38100000J0D01*
G01*
X121626000Y-133235800D02*
G75*
G03*
X121626000Y-133235800I-2500000J0D01*
G01*
X150184000Y-49728000D02*
X150184000Y-159728000D01*
X35184000Y-44728000D02*
X145184000Y-44728000D01*
X129774950Y-156569300D02*
G75*
G03*
X129774950Y-156569300I-1631950J0D01*
G01*
X36934000Y-159978000D02*
G75*
G03*
X36934000Y-159978000I-2000000J0D01*
G01*
X103084000Y-133235800D02*
G75*
G03*
X103084000Y-133235800I-2500000J0D01*
G01*
X39842350Y-58051800D02*
G75*
G03*
X39842350Y-58051800I-1631950J0D01*
G01*
X122301000Y-147048100D02*
G75*
G03*
X122301000Y-147048100I-3175000J0D01*
G01*
X140843000Y-147066000D02*
G75*
G03*
X140843000Y-147066000I-3175000J0D01*
G01*
X145184000Y-164728000D02*
X35184000Y-164728000D01*
X68569000Y-56261000D02*
G75*
G03*
X68569000Y-56261000I-5450000J0D01*
G01*
X144506950Y-58051800D02*
G75*
G03*
X144506950Y-58051800I-1631950J0D01*
G01*
X36934000Y-49478000D02*
G75*
G03*
X36934000Y-49478000I-2000000J0D01*
G01*
X30184000Y-159728000D02*
G75*
G03*
X35184000Y-164728000I5000000J0D01*
G01*
M02*
