%TF.GenerationSoftware,KiCad,Pcbnew,6.0.11+dfsg-1*%
%TF.CreationDate,2024-06-02T11:43:19-07:00*%
%TF.ProjectId,clock,636c6f63-6b2e-46b6-9963-61645f706362,rev?*%
%TF.SameCoordinates,Original*%
%TF.FileFunction,Soldermask,Bot*%
%TF.FilePolarity,Negative*%
%FSLAX46Y46*%
G04 Gerber Fmt 4.6, Leading zero omitted, Abs format (unit mm)*
G04 Created by KiCad (PCBNEW 6.0.11+dfsg-1) date 2024-06-02 11:43:19*
%MOMM*%
%LPD*%
G01*
G04 APERTURE LIST*
G04 Aperture macros list*
%AMHorizOval*
0 Thick line with rounded ends*
0 $1 width*
0 $2 $3 position (X,Y) of the first rounded end (center of the circle)*
0 $4 $5 position (X,Y) of the second rounded end (center of the circle)*
0 Add line between two ends*
20,1,$1,$2,$3,$4,$5,0*
0 Add two circle primitives to create the rounded ends*
1,1,$1,$2,$3*
1,1,$1,$4,$5*%
%AMRotRect*
0 Rectangle, with rotation*
0 The origin of the aperture is its center*
0 $1 length*
0 $2 width*
0 $3 Rotation angle, in degrees counterclockwise*
0 Add horizontal line*
21,1,$1,$2,0,0,$3*%
G04 Aperture macros list end*
%ADD10R,1.600000X1.600000*%
%ADD11O,1.600000X1.600000*%
%ADD12R,3.000000X3.000000*%
%ADD13C,3.000000*%
%ADD14C,1.600000*%
%ADD15C,1.700000*%
%ADD16C,4.000000*%
%ADD17C,2.200000*%
%ADD18C,3.200000*%
%ADD19C,5.000000*%
%ADD20R,1.700000X1.700000*%
%ADD21O,1.700000X1.700000*%
%ADD22RotRect,1.600000X1.600000X315.000000*%
%ADD23R,2.200000X2.200000*%
%ADD24O,2.200000X2.200000*%
%ADD25C,2.400000*%
%ADD26O,2.400000X2.400000*%
%ADD27R,1.070000X1.800000*%
%ADD28O,1.070000X1.800000*%
%ADD29O,3.500000X3.500000*%
%ADD30R,1.905000X2.000000*%
%ADD31O,1.905000X2.000000*%
%ADD32R,1.050000X1.500000*%
%ADD33O,1.050000X1.500000*%
%ADD34RotRect,2.000000X2.000000X45.000000*%
%ADD35HorizOval,2.000000X0.000000X0.000000X0.000000X0.000000X0*%
%ADD36R,2.000000X2.000000*%
%ADD37C,2.000000*%
G04 APERTURE END LIST*
D10*
%TO.C,A1*%
X69205000Y-78740000D03*
D11*
X69205000Y-76200000D03*
X69205000Y-73660000D03*
X69205000Y-71120000D03*
X69205000Y-68580000D03*
X69205000Y-66040000D03*
X69205000Y-63500000D03*
X69205000Y-60960000D03*
X69205000Y-58420000D03*
X69205000Y-55880000D03*
X69205000Y-53340000D03*
X69205000Y-50800000D03*
X69205000Y-48260000D03*
X69205000Y-45720000D03*
X69205000Y-43180000D03*
X53965000Y-43180000D03*
X53965000Y-45720000D03*
X53965000Y-48260000D03*
X53965000Y-50800000D03*
X53965000Y-53340000D03*
X53965000Y-55880000D03*
X53965000Y-58420000D03*
X53965000Y-60960000D03*
X53965000Y-63500000D03*
X53965000Y-66040000D03*
X53965000Y-68580000D03*
X53965000Y-71120000D03*
X53965000Y-73660000D03*
X53965000Y-76200000D03*
X53965000Y-78740000D03*
%TD*%
D12*
%TO.C,J2*%
X79248000Y-32753200D03*
D13*
X84328000Y-32753200D03*
%TD*%
D14*
%TO.C,R1*%
X148463000Y-111963200D03*
D11*
X148463000Y-101803200D03*
%TD*%
D15*
%TO.C,SW1*%
X111633000Y-123540300D03*
X121793000Y-123540300D03*
D16*
X116713000Y-123540300D03*
D17*
X119253000Y-118460300D03*
X112903000Y-121000300D03*
%TD*%
D18*
%TO.C,H2*%
X54356000Y-109220000D03*
%TD*%
D19*
%TO.C,U3*%
X123952000Y-46355000D03*
X123952000Y-84455000D03*
%TD*%
D14*
%TO.C,R9*%
X145407500Y-111963200D03*
D11*
X145407500Y-101803200D03*
%TD*%
D14*
%TO.C,R6*%
X111379000Y-111887000D03*
D11*
X111379000Y-101727000D03*
%TD*%
D20*
%TO.C,U1*%
X69701000Y-99800000D03*
D21*
X69701000Y-97260000D03*
X69701000Y-94720000D03*
X69701000Y-92180000D03*
X69701000Y-89640000D03*
%TD*%
D14*
%TO.C,R3*%
X65913000Y-48260000D03*
D11*
X65913000Y-38100000D03*
%TD*%
D14*
%TO.C,R11*%
X158115000Y-111887000D03*
D11*
X158115000Y-101727000D03*
%TD*%
D22*
%TO.C,BZ1*%
X91577233Y-98927615D03*
D14*
X95112767Y-102463149D03*
%TD*%
D12*
%TO.C,J3*%
X91440000Y-30226000D03*
D13*
X91440000Y-35306000D03*
%TD*%
D23*
%TO.C,D2*%
X81026000Y-40132000D03*
D24*
X91186000Y-40132000D03*
%TD*%
D14*
%TO.C,R4*%
X64770000Y-30226000D03*
D11*
X74930000Y-30226000D03*
%TD*%
D25*
%TO.C,R2*%
X73025000Y-44831000D03*
D26*
X88265000Y-44831000D03*
%TD*%
D27*
%TO.C,D1*%
X114282500Y-109728000D03*
D28*
X115552500Y-109728000D03*
X116822500Y-109728000D03*
X118092500Y-109728000D03*
%TD*%
D18*
%TO.C,H1*%
X54356000Y-34544000D03*
%TD*%
D15*
%TO.C,SW2*%
X140335000Y-123540300D03*
D16*
X135255000Y-123540300D03*
D15*
X130175000Y-123540300D03*
D17*
X137795000Y-118460300D03*
X131445000Y-121000300D03*
%TD*%
D29*
%TO.C,Q2*%
X78105000Y-65936000D03*
D30*
X80645000Y-49276000D03*
D31*
X78105000Y-49276000D03*
X75565000Y-49276000D03*
%TD*%
D32*
%TO.C,Q1*%
X74549000Y-34290000D03*
D33*
X73279000Y-34290000D03*
X72009000Y-34290000D03*
%TD*%
D27*
%TO.C,D3*%
X132875300Y-109728000D03*
D28*
X134145300Y-109728000D03*
X135415300Y-109728000D03*
X136685300Y-109728000D03*
%TD*%
D18*
%TO.C,H4*%
X144272000Y-133065300D03*
%TD*%
D10*
%TO.C,A2*%
X62484000Y-133604000D03*
D14*
X65024000Y-133604000D03*
X67564000Y-133604000D03*
X70104000Y-133604000D03*
X72644000Y-133604000D03*
X75184000Y-133604000D03*
X77724000Y-133604000D03*
X80264000Y-133604000D03*
X82804000Y-133604000D03*
X85344000Y-133604000D03*
X87884000Y-133604000D03*
X90424000Y-133604000D03*
X92964000Y-133604000D03*
X95504000Y-133604000D03*
X98044000Y-133604000D03*
X100584000Y-133604000D03*
X100584000Y-113284000D03*
X98044000Y-113284000D03*
X95504000Y-113284000D03*
X92964000Y-113284000D03*
X90424000Y-113284000D03*
X87884000Y-113284000D03*
X85344000Y-113284000D03*
X82804000Y-113284000D03*
X80264000Y-113284000D03*
X77724000Y-113284000D03*
X75184000Y-113284000D03*
X72644000Y-113284000D03*
%TD*%
D34*
%TO.C,C2*%
X75722699Y-95219301D03*
D35*
X86329301Y-84612699D03*
%TD*%
D27*
%TO.C,D4*%
X151366500Y-109728000D03*
D28*
X152636500Y-109728000D03*
X153906500Y-109728000D03*
X155176500Y-109728000D03*
%TD*%
D14*
%TO.C,R5*%
X140716000Y-111963200D03*
D11*
X140716000Y-101803200D03*
%TD*%
D36*
%TO.C,C1*%
X80472677Y-76835000D03*
D37*
X75472677Y-76835000D03*
%TD*%
D14*
%TO.C,R10*%
X130302000Y-108077000D03*
D11*
X122682000Y-108077000D03*
%TD*%
D14*
%TO.C,R8*%
X137922000Y-104648000D03*
D11*
X127762000Y-104648000D03*
%TD*%
D18*
%TO.C,H3*%
X159004000Y-34544000D03*
%TD*%
D14*
%TO.C,R12*%
X102997000Y-108331000D03*
D11*
X92837000Y-108331000D03*
%TD*%
D15*
%TO.C,SW3*%
X148717000Y-123540300D03*
D16*
X153797000Y-123540300D03*
D15*
X158877000Y-123540300D03*
D17*
X156337000Y-118460300D03*
X149987000Y-121000300D03*
%TD*%
D14*
%TO.C,R7*%
X108196500Y-111912400D03*
D11*
X108196500Y-101752400D03*
%TD*%
M02*
