M48
; DRILL file {KiCad 6.0.11+dfsg-1} date Sun 02 Jun 2024 11:43:14 AM PDT
; FORMAT={-:-/ absolute / inch / decimal}
; #@! TF.CreationDate,2024-06-02T11:43:14-07:00
; #@! TF.GenerationSoftware,Kicad,Pcbnew,6.0.11+dfsg-1
; #@! TF.FileFunction,Plated,1,2,PTH
FMAT,2
INCH
; #@! TA.AperFunction,Plated,PTH,ViaDrill
T1C0.0157
; #@! TA.AperFunction,Plated,PTH,ComponentDrill
T2C0.0295
; #@! TA.AperFunction,Plated,PTH,ComponentDrill
T3C0.0315
; #@! TA.AperFunction,Plated,PTH,ComponentDrill
T4C0.0354
; #@! TA.AperFunction,Plated,PTH,ComponentDrill
T5C0.0394
; #@! TA.AperFunction,Plated,PTH,ComponentDrill
T6C0.0433
; #@! TA.AperFunction,Plated,PTH,ComponentDrill
T7C0.0472
; #@! TA.AperFunction,Plated,PTH,ComponentDrill
T8C0.0591
; #@! TA.AperFunction,Plated,PTH,ComponentDrill
T9C0.0598
; #@! TA.AperFunction,Plated,PTH,ComponentDrill
T10C0.1181
%
G90
G05
T1
X2.41Y-2.595
X2.45Y-2.635
X2.625Y-3.12
X2.785Y-1.9528
X2.84Y-2.3862
T2
X2.835Y-1.35
X2.885Y-1.35
X2.935Y-1.35
T3
X2.46Y-5.26
X2.55Y-1.19
X2.56Y-5.26
X2.595Y-1.5
X2.595Y-1.9
X2.66Y-5.26
X2.76Y-5.26
X2.86Y-4.46
X2.86Y-5.26
X2.95Y-1.19
X2.96Y-4.46
X2.96Y-5.26
X3.06Y-4.46
X3.06Y-5.26
X3.16Y-4.46
X3.16Y-5.26
X3.26Y-4.46
X3.26Y-5.26
X3.36Y-4.46
X3.36Y-5.26
X3.46Y-4.46
X3.46Y-5.26
X3.56Y-4.46
X3.56Y-5.26
X3.6054Y-3.8948
X3.655Y-4.265
X3.66Y-4.46
X3.66Y-5.26
X3.7446Y-4.034
X3.76Y-4.46
X3.76Y-5.26
X3.86Y-4.46
X3.86Y-5.26
X3.96Y-4.46
X3.96Y-5.26
X4.055Y-4.265
X4.2597Y-4.006
X4.2597Y-4.406
X4.385Y-4.005
X4.385Y-4.405
X4.83Y-4.255
X5.03Y-4.12
X5.13Y-4.255
X5.43Y-4.12
X5.54Y-4.008
X5.54Y-4.408
X5.7247Y-4.008
X5.7247Y-4.408
X5.845Y-4.008
X5.845Y-4.408
X6.225Y-4.005
X6.225Y-4.405
T4
X4.4993Y-4.32
X4.5493Y-4.32
X4.5993Y-4.32
X4.6493Y-4.32
X5.2313Y-4.32
X5.2813Y-4.32
X5.3313Y-4.32
X5.3813Y-4.32
X5.9593Y-4.32
X6.0093Y-4.32
X6.0593Y-4.32
X6.1093Y-4.32
T5
X2.1246Y-1.7
X2.1246Y-1.8
X2.1246Y-1.9
X2.1246Y-2.0
X2.1246Y-2.1
X2.1246Y-2.2
X2.1246Y-2.3
X2.1246Y-2.4
X2.1246Y-2.5
X2.1246Y-2.6
X2.1246Y-2.7
X2.1246Y-2.8
X2.1246Y-2.9
X2.1246Y-3.0
X2.1246Y-3.1
X2.7246Y-1.7
X2.7246Y-1.8
X2.7246Y-1.9
X2.7246Y-2.0
X2.7246Y-2.1
X2.7246Y-2.2
X2.7246Y-2.3
X2.7246Y-2.4
X2.7246Y-2.5
X2.7246Y-2.6
X2.7246Y-2.7
X2.7246Y-2.8
X2.7246Y-2.9
X2.7246Y-3.0
X2.7246Y-3.1
X2.7441Y-3.5291
X2.7441Y-3.6291
X2.7441Y-3.7291
X2.7441Y-3.8291
X2.7441Y-3.9291
X2.9714Y-3.025
X2.9812Y-3.7488
X3.1682Y-3.025
X3.3988Y-3.3312
T6
X2.975Y-1.94
X3.075Y-1.94
X3.175Y-1.94
X3.19Y-1.58
X3.59Y-1.58
T7
X2.875Y-1.765
X3.475Y-1.765
T8
X4.445Y-4.7638
X4.695Y-4.6638
X5.175Y-4.7638
X5.425Y-4.6638
X5.905Y-4.7638
X6.155Y-4.6638
T9
X3.12Y-1.2895
X3.32Y-1.2895
X3.6Y-1.19
X3.6Y-1.39
T10
X4.88Y-1.825
X4.88Y-3.325
T0
M30
